#N canvas 220 84 1220 794 12;
#X obj 320 103 inlet;
#X obj 641 86 inlet;
#X text 153 103 receives root symbol;
#X text 683 87 receives quality symbol;
#X obj 96 300 mtof;
#X obj 96 352 osc~;
#X obj 86 419 dac~;
#X floatatom 294 200 5 0 0 0 - - - 0;
#X floatatom 96 324 5 0 0 0 - - - 0;
#X symbolatom 413 142 10 0 0 0 - - - 0;
#N canvas 740 172 450 278 (subpatch) 0;
#X array currChord 4 float 3;
#A 0 36 39 43 46;
#X coords 0 127 4 0 200 127 1 0 0;
#X restore 231 316 graph;
#X obj 148 331 tgl 15 0 empty empty empty 17 7 0 10 #fcfcfc #000000
#000000 0 1;
#X obj 91 380 *~;
#X obj 10 501 bng 15 250 50 0 empty empty empty 17 7 0 10 #fcfcfc #000000
#000000;
#X text 44 499 tests current chord;
#X symbolatom 500 143 10 0 0 0 - - - 0;
#N canvas 87 158 911 575 inputTester 0;
#X obj 297 393 outlet;
#X obj 398 394 outlet;
#X obj 107 7 inlet;
#X obj 152 42 delay 2000;
#X obj 255 64 delay 2000;
#X symbolatom 298 366 10 0 0 0 - - - 0;
#X symbolatom 397 365 5 0 0 0 - - - 0;
#X msg 79 82 list D m7;
#X obj 306 337 unpack symbol symbol;
#X msg 156 106 list G △7;
#X msg 239 122 list C M7;
#X obj 412 41 inlet;
#X msg 364 116 list Bb mM7;
#X msg 461 140 list Ab mM7;
#X msg 564 156 list Bb mM7;
#X obj 457 76 delay 2000;
#X obj 560 98 delay 2000;
#X obj 648 127 delay 2000;
#X obj 744 146 delay 1000;
#X msg 652 185 list Ab m7;
#X msg 745 209 list Db △7;
#X obj 848 50 inlet;
#X connect 2 0 3 0;
#X connect 2 0 7 0;
#X connect 3 0 4 0;
#X connect 3 0 9 0;
#X connect 4 0 10 0;
#X connect 5 0 0 0;
#X connect 6 0 1 0;
#X connect 7 0 8 0;
#X connect 8 0 5 0;
#X connect 8 1 6 0;
#X connect 9 0 8 0;
#X connect 10 0 8 0;
#X connect 11 0 12 0;
#X connect 11 0 15 0;
#X connect 12 0 8 0;
#X connect 13 0 8 0;
#X connect 14 0 8 0;
#X connect 15 0 13 0;
#X connect 15 0 16 0;
#X connect 16 0 14 0;
#X connect 16 0 17 0;
#X connect 17 0 19 0;
#X connect 17 0 18 0;
#X connect 18 0 20 0;
#X connect 19 0 8 0;
#X connect 20 0 8 0;
#X connect 21 0 8 0;
#X restore 418 62 pd inputTester;
#X obj 418 37 bng 15 250 50 0 empty empty empty 17 7 0 10 #fcfcfc #000000
#000000;
#X obj 41 63 bng 15 250 50 0 empty empty empty 17 7 0 10 #fcfcfc #000000
#000000;
#N canvas 569 222 825 652 chordTester 0;
#X obj 426 194 mtof;
#X obj 426 266 osc~;
#X floatatom 426 218 5 0 0 0 - - - 0;
#X obj 604 191 mtof;
#X obj 604 263 osc~;
#X floatatom 604 215 5 0 0 0 - - - 0;
#X obj 744 197 mtof;
#X obj 745 265 osc~;
#X obj 469 377 dac~;
#X floatatom 744 221 5 0 0 0 - - - 0;
#X obj 190 242 tgl 15 0 empty empty empty 17 7 0 10 #fcfcfc #000000
#000000 0 1;
#X obj 479 317 *~;
#X obj 321 196 mtof;
#X obj 321 268 osc~;
#X floatatom 321 220 5 0 0 0 - - - 0;
#X obj 479 341 /~ 4;
#X obj 479 295 +~;
#X obj 319 119 tabread currChord;
#X msg 319 91 0;
#X obj 319 143 + 24;
#X obj 459 119 tabread currChord;
#X obj 459 143 + 24;
#X obj 609 119 tabread currChord;
#X obj 609 143 + 24;
#X obj 744 123 tabread currChord;
#X obj 744 147 + 24;
#X msg 459 91 1;
#X msg 609 91 2;
#X msg 744 95 3;
#X obj 511 64 bng 15 250 50 0 empty empty empty 17 7 0 10 #fcfcfc #000000
#000000;
#X text 538 62 tests current chord;
#X floatatom 202 138 5 0 0 0 - - - 0;
#X floatatom 152 138 5 0 0 0 - - - 0;
#X floatatom 105 138 5 0 0 0 - - - 0;
#X floatatom 253 138 5 0 0 0 - - - 0;
#X obj 321 243 *~;
#X obj 115 170 tgl 15 0 empty empty empty 17 7 0 10 #fcfcfc #000000
#000000 0 1;
#X obj 427 243 *~;
#X obj 162 172 tgl 15 0 empty empty empty 17 7 0 10 #fcfcfc #000000
#000000 0 1;
#X obj 604 237 *~;
#X obj 210 172 tgl 15 0 empty empty empty 17 7 0 10 #fcfcfc #000000
#000000 0 1;
#X obj 744 243 *~;
#X obj 262 173 tgl 15 0 empty empty empty 17 7 0 10 #fcfcfc #000000
#000000 0 1;
#X obj 523 30 inlet;
#X text 169 220 main audio;
#X text 102 116 root;
#X text 147 115 third;
#X text 195 116 fifth;
#X text 244 113 seventh;
#X connect 0 0 2 0;
#X connect 1 0 16 0;
#X connect 2 0 37 0;
#X connect 3 0 5 0;
#X connect 4 0 16 1;
#X connect 5 0 39 0;
#X connect 6 0 9 0;
#X connect 7 0 16 1;
#X connect 9 0 41 0;
#X connect 10 0 11 1;
#X connect 11 0 15 0;
#X connect 12 0 14 0;
#X connect 13 0 16 0;
#X connect 14 0 35 0;
#X connect 15 0 8 0;
#X connect 15 0 8 1;
#X connect 16 0 11 0;
#X connect 17 0 19 0;
#X connect 18 0 17 0;
#X connect 19 0 33 0;
#X connect 20 0 21 0;
#X connect 21 0 32 0;
#X connect 22 0 23 0;
#X connect 23 0 31 0;
#X connect 24 0 25 0;
#X connect 25 0 34 0;
#X connect 26 0 20 0;
#X connect 27 0 22 0;
#X connect 28 0 24 0;
#X connect 29 0 26 0;
#X connect 29 0 18 0;
#X connect 29 0 27 0;
#X connect 29 0 28 0;
#X connect 31 0 3 0;
#X connect 32 0 0 0;
#X connect 33 0 12 0;
#X connect 34 0 6 0;
#X connect 35 0 13 0;
#X connect 36 0 35 1;
#X connect 37 0 1 0;
#X connect 38 0 37 1;
#X connect 39 0 4 0;
#X connect 40 0 39 1;
#X connect 41 0 7 0;
#X connect 42 0 41 1;
#X connect 43 0 29 0;
#X coords 0 -1 1 1 200 200 1 100 100;
#X restore 15 524 pd chordTester;
#X obj 464 37 bng 15 250 50 0 empty empty empty 17 7 0 10 #fcfcfc #000000
#000000;
#X text 412 17 2-5-1;
#X text 465 19 Nicas;
#N canvas 27 175 1241 671 scaleBuilder 1;
#X obj 221 33 inlet;
#X obj 58 40 inlet;
#X text 271 35 quality;
#X msg 57 328 \; currScale 0 \$1 \$2 \$3 \$4 \$5 \$6 \$7;
#X text 104 40 root in midi;
#X msg 213 109 2 4 5 7 9 11;
#X obj 57 293 pack f f f f f f f, f 77;
#X obj 215 164 unpack f f f f f f, f 62;
#X floatatom 58 149 5 0 0 0 - - - 0;
#X obj 146 237 +;
#X floatatom 146 261 5 0 0 0 - - - 0;
#X obj 235 234 +;
#X floatatom 235 258 5 0 0 0 - - - 0;
#X obj 325 235 +;
#X floatatom 325 259 5 0 0 0 - - - 0;
#X obj 414 234 +;
#X floatatom 414 258 5 0 0 0 - - - 0;
#X obj 503 237 +;
#X floatatom 503 261 5 0 0 0 - - - 0;
#X obj 593 217 +;
#X floatatom 593 241 5 0 0 0 - - - 0;
#X obj 593 264 t b f;
#X msg 311 109 2 4 5 7 9 10;
#X msg 413 109 2 3 5 7 9 10;
#X msg 519 108 2 3 5 7 8 11;
#X msg 717 106 2 3 5 6 8 9;
#X msg 621 106 2 3 5 6 8 10;
#X text 725 132 omit 8th tone;
#X obj 218 68 sel M7 '7 m7 mM7 m7b5 dim7 aug7 '6, f 116;
#X msg 820 106 2 4 5 8 9 10;
#X msg 925 105 2 4 5 7 9 11;
#X connect 0 0 28 0;
#X connect 1 0 8 0;
#X connect 5 0 7 0;
#X connect 6 0 3 0;
#X connect 7 0 9 1;
#X connect 7 1 11 1;
#X connect 7 2 13 1;
#X connect 7 3 15 1;
#X connect 7 4 17 1;
#X connect 7 5 19 1;
#X connect 8 0 6 0;
#X connect 8 0 9 0;
#X connect 8 0 11 0;
#X connect 8 0 13 0;
#X connect 8 0 15 0;
#X connect 8 0 17 0;
#X connect 8 0 19 0;
#X connect 9 0 10 0;
#X connect 10 0 6 1;
#X connect 11 0 12 0;
#X connect 12 0 6 2;
#X connect 13 0 14 0;
#X connect 14 0 6 3;
#X connect 15 0 16 0;
#X connect 16 0 6 4;
#X connect 17 0 18 0;
#X connect 18 0 6 5;
#X connect 19 0 20 0;
#X connect 20 0 21 0;
#X connect 21 0 6 0;
#X connect 21 1 6 6;
#X connect 22 0 7 0;
#X connect 23 0 7 0;
#X connect 24 0 7 0;
#X connect 25 0 7 0;
#X connect 26 0 7 0;
#X connect 28 0 5 0;
#X connect 28 1 22 0;
#X connect 28 2 23 0;
#X connect 28 3 24 0;
#X connect 28 4 26 0;
#X connect 28 5 25 0;
#X connect 28 6 29 0;
#X connect 28 7 30 0;
#X connect 29 0 7 0;
#X connect 30 0 7 0;
#X restore 384 266 pd scaleBuilder;
#N canvas 0 22 450 278 (subpatch) 0;
#X array currScale 7 float 3;
#A 0 36 38 39 41 43 45 46;
#X coords 0 127 7 0 200 127 1 0 0;
#X restore 231 467 graph;
#N canvas 799 194 450 564 scaleTester 0;
#X obj 116 143 bng 15 250 50 0 empty empty empty 17 7 0 10 #fcfcfc
#000000 #000000;
#X obj 154 145 tgl 15 0 empty empty empty 17 7 0 10 #fcfcfc #000000
#000000 0 1;
#X obj 88 468 mtof;
#X obj 88 492 osc~;
#X obj 88 516 *~;
#X obj 80 540 dac~;
#X text 152 127 enable;
#X text 108 127 reset;
#X obj 105 265 f;
#X obj 140 264 + 1;
#X floatatom 105 293 5 0 0 0 - - - 0;
#X floatatom 33 237 5 0 0 0 - - - 0;
#X obj 105 321 mod 7;
#X floatatom 105 354 5 0 0 0 - - - 0;
#X obj 187 330 + 1;
#X floatatom 206 135 5 0 0 0 - - - 0;
#X text 208 117 note;
#X obj 105 392 tabread currScale;
#X obj 151 481 tgl 15 0 empty empty empty 17 7 0 10 #fcfcfc #000000
#000000 0 1;
#X floatatom 106 443 5 0 0 0 - - - 0;
#X obj 104 239 metro 200;
#X floatatom 209 175 5 0 0 0 - - - 0;
#X text 207 157 speed;
#X obj 119 181 tgl 15 0 empty empty empty 17 7 0 10 #fcfcfc #000000
#000000 0 1;
#X text 116 163 random;
#X obj 28 317 random 7;
#X floatatom 28 341 5 0 0 0 - - - 0;
#X obj 28 399 *;
#X floatatom 28 423 5 0 0 0 - - - 0;
#X obj 29 449 sel 0;
#X obj 106 419 + 36;
#X connect 0 0 11 0;
#X connect 1 0 18 0;
#X connect 1 0 20 0;
#X connect 2 0 3 0;
#X connect 3 0 4 0;
#X connect 4 0 5 0;
#X connect 4 0 5 1;
#X connect 8 0 9 0;
#X connect 8 0 10 0;
#X connect 9 0 8 1;
#X connect 10 0 12 0;
#X connect 11 0 8 1;
#X connect 12 0 13 0;
#X connect 13 0 14 0;
#X connect 13 0 17 0;
#X connect 14 0 15 0;
#X connect 17 0 30 0;
#X connect 18 0 4 1;
#X connect 19 0 2 0;
#X connect 20 0 8 0;
#X connect 20 0 25 0;
#X connect 21 0 20 1;
#X connect 23 0 27 1;
#X connect 25 0 26 0;
#X connect 26 0 27 0;
#X connect 27 0 28 0;
#X connect 28 0 29 0;
#X connect 29 1 13 0;
#X connect 30 0 19 0;
#X coords 0 -1 1 1 150 100 1 100 100;
#X restore 237 617 pd scaleTester;
#N canvas 48 190 998 463 chordBuilder 0;
#X obj 221 33 inlet;
#X obj 58 40 inlet;
#X text 271 35 quality;
#X text 104 40 root in midi;
#X obj 100 341 pack f f f f, f 35;
#X floatatom 101 191 5 0 0 0 - - - 0;
#X msg 102 370 \; currChord 0 \$1 \$2 \$3 \$4;
#X obj 180 255 +;
#X obj 261 255 +;
#X obj 344 253 +;
#X obj 198 223 r \$0-third;
#X floatatom 180 280 5 0 0 0 - - - 0;
#X floatatom 261 278 5 0 0 0 - - - 0;
#X floatatom 342 281 5 0 0 0 - - - 0;
#X obj 279 223 r \$0-fifth;
#X obj 362 222 r \$0-seventh;
#X obj 169 168 unpack f f f, f 23;
#X obj 192 193 s \$0-third;
#X obj 351 193 s \$0-seventh;
#X obj 272 193 s \$0-fifth;
#X msg 119 117 4 7 11;
#X obj 342 304 t b f;
#X msg 179 117 4 7 10;
#X msg 239 117 3 7 10;
#X msg 299 117 3 7 11;
#X msg 359 117 3 6 10;
#X msg 419 117 3 6 9;
#X obj 119 89 sel M7 '7 m7 mM7 m7b5 dim7 aug7 '6, f 69;
#X msg 476 117 4 8 10;
#X msg 538 116 4 7 9;
#X connect 0 0 27 0;
#X connect 1 0 5 0;
#X connect 4 0 6 0;
#X connect 5 0 4 0;
#X connect 5 0 7 0;
#X connect 5 0 8 0;
#X connect 5 0 9 0;
#X connect 7 0 11 0;
#X connect 8 0 12 0;
#X connect 9 0 13 0;
#X connect 10 0 7 1;
#X connect 11 0 4 1;
#X connect 12 0 4 2;
#X connect 13 0 21 0;
#X connect 14 0 8 1;
#X connect 15 0 9 1;
#X connect 16 0 17 0;
#X connect 16 1 19 0;
#X connect 16 2 18 0;
#X connect 20 0 16 0;
#X connect 21 0 4 0;
#X connect 21 1 4 3;
#X connect 22 0 16 0;
#X connect 23 0 16 0;
#X connect 24 0 16 0;
#X connect 25 0 16 0;
#X connect 26 0 16 0;
#X connect 27 0 20 0;
#X connect 27 1 22 0;
#X connect 27 2 23 0;
#X connect 27 3 24 0;
#X connect 27 4 25 0;
#X connect 27 5 26 0;
#X connect 27 6 28 0;
#X connect 27 7 29 0;
#X connect 28 0 16 0;
#X connect 29 0 16 0;
#X restore 382 231 pd chordBuilder;
#X text 447 354 array with 4 notes representing the root \, third \,
fifth \, and 7th;
#X text 449 501 array representing a 7 tone scale;
#N canvas 459 223 775 655 twnbay 0;
#X obj 655 79 outlet;
#X obj 98 52 inlet;
#X msg 90 99 list Eb M7;
#X obj 655 44 r twnbayTest;
#X obj 90 123 s twnbayTest;
#X obj 189 115 s twnbayTest;
#X obj 279 115 s twnbayTest;
#X msg 189 91 list D m7b5;
#X msg 279 91 list G △7;
#X obj 81 238 s twnbayTest;
#X obj 171 238 s twnbayTest;
#X msg 81 214 list C m7;
#X msg 171 214 list Bb m7;
#X obj 263 239 s twnbayTest;
#X msg 263 215 list Eb △7;
#X obj 80 366 s twnbayTest;
#X obj 170 366 s twnbayTest;
#X obj 262 367 s twnbayTest;
#X obj 358 369 s twnbayTest;
#X obj 450 370 s twnbayTest;
#X msg 80 342 list Ab M7;
#X msg 170 342 list F m7b5;
#X msg 262 343 list Bb △7;
#X msg 358 345 list Eb M7;
#X msg 450 346 list C m7;
#X obj 80 494 s twnbayTest;
#X obj 170 494 s twnbayTest;
#X obj 262 495 s twnbayTest;
#X obj 358 497 s twnbayTest;
#X obj 450 498 s twnbayTest;
#X msg 80 470 list F △7;
#X msg 170 470 list C m7;
#X msg 262 471 list F △7;
#X msg 358 473 list F m7;
#X msg 450 474 list Bb △7;
#X obj 188 64 delay 2000;
#X obj 278 64 delay 1000;
#X obj 80 187 delay 1000;
#X obj 170 187 delay 2000;
#X obj 262 188 delay 1000;
#X obj 79 315 delay 1000;
#X obj 169 315 delay 1000;
#X obj 261 316 delay 500;
#X obj 357 318 delay 500;
#X obj 449 319 delay 1000;
#X obj 79 443 delay 1000;
#X obj 169 443 delay 1000;
#X obj 261 444 delay 500;
#X obj 357 446 delay 500;
#X obj 449 447 delay 1000;
#X connect 1 0 2 0;
#X connect 1 0 35 0;
#X connect 2 0 4 0;
#X connect 3 0 0 0;
#X connect 7 0 5 0;
#X connect 8 0 6 0;
#X connect 11 0 9 0;
#X connect 12 0 10 0;
#X connect 14 0 13 0;
#X connect 20 0 15 0;
#X connect 21 0 16 0;
#X connect 22 0 17 0;
#X connect 23 0 18 0;
#X connect 24 0 19 0;
#X connect 30 0 25 0;
#X connect 31 0 26 0;
#X connect 32 0 27 0;
#X connect 33 0 28 0;
#X connect 34 0 29 0;
#X connect 35 0 7 0;
#X connect 35 0 36 0;
#X connect 36 0 8 0;
#X connect 36 0 37 0;
#X connect 37 0 11 0;
#X connect 37 0 38 0;
#X connect 38 0 12 0;
#X connect 38 0 39 0;
#X connect 39 0 14 0;
#X connect 39 0 40 0;
#X connect 40 0 20 0;
#X connect 40 0 41 0;
#X connect 41 0 21 0;
#X connect 41 0 42 0;
#X connect 42 0 22 0;
#X connect 42 0 43 0;
#X connect 43 0 23 0;
#X connect 43 0 44 0;
#X connect 44 0 24 0;
#X connect 44 0 45 0;
#X connect 45 0 30 0;
#X connect 45 0 46 0;
#X connect 46 0 31 0;
#X connect 46 0 47 0;
#X connect 47 0 32 0;
#X connect 47 0 48 0;
#X connect 48 0 33 0;
#X connect 48 0 49 0;
#X connect 49 0 34 0;
#X restore 521 36 pd twnbay;
#X obj 525 11 bng 15 250 50 0 empty empty empty 17 7 0 10 #fcfcfc #000000
#000000;
#X text 553 10 There Will Never Be Another You;
#X obj 165 172 bng 15 250 50 0 empty empty empty 17 7 0 10 #fcfcfc
#000000 #000000;
#N canvas 31 91 1155 300 noteToMidi 0;
#X floatatom 213 164 5 0 0 0 - - - 0;
#X msg 35 118 36;
#X msg 72 118 37;
#X msg 105 118 38;
#X msg 142 118 39;
#X obj 49 84 sel C C# Db D D# Eb E F F# Gb G G# Ab A A# Bb B, f 57
;
#X text -19 163 converted root in lowest octave;
#X obj 64 32 inlet;
#X text 125 34 receive symbol note;
#X obj 219 222 outlet;
#X msg 175 118 28;
#X msg 212 118 29;
#X msg 245 118 30;
#X msg 280 118 31;
#X msg 315 118 32;
#X msg 352 118 33;
#X msg 385 118 34;
#X msg 422 118 35;
#X connect 0 0 9 0;
#X connect 1 0 0 0;
#X connect 2 0 0 0;
#X connect 3 0 0 0;
#X connect 4 0 0 0;
#X connect 5 0 1 0;
#X connect 5 1 2 0;
#X connect 5 2 2 0;
#X connect 5 3 3 0;
#X connect 5 4 4 0;
#X connect 5 5 4 0;
#X connect 5 6 10 0;
#X connect 5 7 11 0;
#X connect 5 8 12 0;
#X connect 5 9 12 0;
#X connect 5 10 13 0;
#X connect 5 11 14 0;
#X connect 5 12 14 0;
#X connect 5 13 15 0;
#X connect 5 14 16 0;
#X connect 5 15 16 0;
#X connect 5 16 17 0;
#X connect 7 0 5 0;
#X connect 10 0 0 0;
#X connect 11 0 0 0;
#X connect 12 0 0 0;
#X connect 13 0 0 0;
#X connect 14 0 0 0;
#X connect 15 0 0 0;
#X connect 16 0 0 0;
#X connect 17 0 0 0;
#X restore 300 163 pd noteToMidi;
#X obj 204 253 s newChordBang;
#X text 205 277 bang on new chord;
#X connect 0 0 9 0;
#X connect 0 0 32 0;
#X connect 1 0 15 0;
#X connect 4 0 8 0;
#X connect 5 0 12 0;
#X connect 7 0 4 0;
#X connect 7 0 23 0;
#X connect 7 0 26 0;
#X connect 8 0 5 0;
#X connect 9 0 33 0;
#X connect 11 0 12 1;
#X connect 12 0 6 0;
#X connect 12 0 6 1;
#X connect 13 0 19 0;
#X connect 15 0 26 1;
#X connect 15 0 23 1;
#X connect 16 0 9 0;
#X connect 16 0 18 0;
#X connect 16 1 15 0;
#X connect 17 0 16 0;
#X connect 18 0 13 0;
#X connect 20 0 16 1;
#X connect 29 0 16 2;
#X connect 30 0 29 0;
#X connect 32 0 13 0;
#X connect 32 0 34 0;
#X connect 33 0 7 0;
