#N canvas 238 353 450 455 12;
#X obj 95 41 inlet;
#X obj 210 73 r totalBeat;
#X floatatom 210 98 5 0 0 0 - - - 0;
#X obj 151 280 *~;
#X obj 211 234 line~;
#X obj 166 243 *~;
#X obj 76 194 noise~;
#X obj 207 130 mod 2;
#X floatatom 207 154 5 0 0 0 - - - 0;
#X obj 207 177 sel 0;
#X text 272 242 play whitenoise "hat" every 2nd beat;
#X msg 210 206 0.7 \, 0 100;
#X obj 152 308 outlet~;
#X connect 0 0 3 1;
#X connect 1 0 2 0;
#X connect 2 0 7 0;
#X connect 3 0 12 0;
#X connect 4 0 5 1;
#X connect 5 0 3 0;
#X connect 6 0 5 0;
#X connect 7 0 8 0;
#X connect 8 0 9 0;
#X connect 9 0 11 0;
#X connect 11 0 4 0;
