#N canvas 26 151 1414 689 12;
#X floatatom 318 26 5 0 0 0 - - - 0;
#X obj 763 288 bng 15 250 50 0 empty empty empty 17 7 0 10 #fcfcfc
#000000 #000000;
#X floatatom 754 359 5 0 0 0 - - - 0;
#X obj 838 282 text define -k leadSheet;
#A set Bb M7 4 \; C m7 4 \; D m7 4 \; C m7 4 \; Db M7 4 \; C m7 4 \;
D m7 4 \; F m7 2 \; Bb '7 2 \; Eb M7 4 \; E m7b5 2 \; A '7 2 \; D m7
4 \; G '7 4 \; C# m7 4 \; F# '7 4 \; C m7 4 \; F '7 4 \; Bb M7 4 \;
C m7 4 \; D m7 4 \; C m7 4 \; Db M7 4 \; C m7 4 \; D m7 4 \; F m7 2
\; Bb '7 2 \; Eb M7 4 \; E m7b5 2 \; A '7 2 \; D m7 4 \; G '7 4 \;
C m7 4 \; F '7 4 \; Bb M7 8;
#X obj 181 66 text get leadSheet;
#X obj 750 334 text size leadSheet;
#X listbox 179 105 20 0 0 0 - - - 0;
#X text 370 25 get line to read;
#X symbolatom 171 166 10 0 0 0 - - - 0;
#X symbolatom 255 166 10 0 0 0 - - - 0;
#X floatatom 340 166 5 0 0 0 - - - 0;
#X obj 172 229 outlet;
#X obj 256 226 outlet;
#X obj 341 220 outlet;
#X obj 319 2 inlet;
#X text 263 268 currChord quality;
#X text 336 247 length of chord;
#X obj 561 99 text get leadSheet;
#X listbox 559 124 20 0 0 0 - - - 0;
#X obj 559 147 unpack symbol symbol f;
#X symbolatom 551 185 10 0 0 0 - - - 0;
#X symbolatom 640 182 10 0 0 0 - - - 0;
#X obj 551 208 outlet;
#X obj 640 205 outlet;
#X obj 594 28 + 1;
#X text 629 29 check next chord;
#X text 548 238 output next chord;
#X obj 179 128 unpack symbol symbol f;
#X obj 27 230 pack symbol symbol;
#X obj 413 181 pack symbol symbol;
#X text 154 264 currChord note;
#X obj 28 302 s currChordSymbol;
#X obj 413 212 s nextChordSymbol;
#X obj 754 382 s numChords;
#X obj 621 329 s resetSong;
#X obj 867 146 loadbang;
#X msg 873 173 read -c charts/there-will-never.txt;
#X obj 865 52 inlet;
#X text 920 54 get message for next chart;
#X text 534 351 sends bang to reset song;
#X obj 776 241 t b a;
#X msg 866 102 read -c charts/\$1.txt;
#X obj 865 76 pack s;
#X text 939 148 default load twnbay;
#X obj 464 84 ==;
#X obj 494 45 r numChords;
#X obj 466 109 tgl 15 0 empty empty empty 17 7 0 10 #fcfcfc #000000
#000000 0 1;
#X obj 494 69 - 1;
#X msg 466 134 0;
#X floatatom 566 71 5 0 0 0 - - - 0;
#X obj 402 84 bng 15 250 50 0 empty empty empty 17 7 0 10 #fcfcfc #000000
#000000;
#X obj 402 104 spigot;
#X connect 0 0 4 0;
#X connect 0 0 24 0;
#X connect 0 0 44 0;
#X connect 0 0 50 0;
#X connect 1 0 5 0;
#X connect 1 0 34 0;
#X connect 2 0 33 0;
#X connect 4 0 6 0;
#X connect 5 0 2 0;
#X connect 6 0 27 0;
#X connect 8 0 11 0;
#X connect 8 0 28 0;
#X connect 9 0 12 0;
#X connect 9 0 28 1;
#X connect 10 0 13 0;
#X connect 14 0 0 0;
#X connect 17 0 18 0;
#X connect 18 0 19 0;
#X connect 19 0 20 0;
#X connect 19 0 29 0;
#X connect 19 1 21 0;
#X connect 19 1 29 1;
#X connect 20 0 22 0;
#X connect 21 0 23 0;
#X connect 24 0 49 0;
#X connect 27 0 8 0;
#X connect 27 1 9 0;
#X connect 27 2 10 0;
#X connect 28 0 31 0;
#X connect 29 0 32 0;
#X connect 35 0 36 0;
#X connect 36 0 40 0;
#X connect 37 0 42 0;
#X connect 40 0 1 0;
#X connect 40 1 3 0;
#X connect 41 0 40 0;
#X connect 42 0 41 0;
#X connect 44 0 46 0;
#X connect 45 0 47 0;
#X connect 46 0 51 1;
#X connect 47 0 44 1;
#X connect 48 0 49 0;
#X connect 49 0 17 0;
#X connect 50 0 51 0;
#X connect 51 0 48 0;
