#N canvas 148 59 958 609 12;
#X obj 22 340 line~;
#X obj 139 335 - 3;
#X obj 22 386 +~ 1;
#X obj 22 313 pack, f 11;
#X obj 22 364 *~;
#X obj 23 160 t b b f;
#X floatatom 23 133 5 0 0 0 - - - 0;
#X obj 108 292 *;
#X floatatom 105 190 5 0 0 0 - - - 0;
#X obj 106 223 * -0.0577623;
#X obj 106 247 exp;
#X floatatom 106 271 5 0 0 0 - - - 0;
#X floatatom 23 69 5 0 0 0 - - - 0;
#X floatatom 280 70 5 0 0 0 - - - 0;
#X text 62 71 pitch;
#X obj 23 103 -;
#X obj 280 415 line~;
#X obj 95 457 *~;
#X obj 95 481 outlet~;
#X obj 24 16 inlet;
#X msg 23 189 1;
#X msg 66 188 0;
#X floatatom 600 75 5 0 0 0 - - - 0;
#X text 646 76 decay;
#X text 316 70 level;
#X msg 757 210 0 10;
#X text 463 71 sustain;
#X floatatom 425 75 5 0 0 0 - - - 0;
#X obj 525 138 pack f f;
#X obj 295 456 env~;
#X floatatom 362 527 5 0 0 0 - - - 0;
#X msg 524 162 \$1 \$2;
#X obj 158 187 r \$1-duration;
#X obj 66 92 r \$1-ref-pitch;
#X obj 139 311 r \$1-length;
#X obj 22 419 tabread4~ \$1-array;
#X obj 23 45 unpack f f f f f, f 105;
#X obj 757 178 del;
#X obj 757 124 - 10;
#X text 628 122 time to next note;
#X floatatom 755 101 5 0 0 0 - - - 0;
#X obj 261 144 pack f 10;
#X obj 456 209 list;
#X obj 391 147 del 10;
#X msg 348 149 0;
#X obj 283 100 t f b b b;
#X msg 390 116 stop;
#X msg 817 106 stop;
#X obj 755 67 t f b;
#X obj 730 264 bng 15 250 50 0 empty empty empty 17 7 0 10 #fcfcfc
#000000 #000000;
#X connect 0 0 4 0;
#X connect 1 0 4 1;
#X connect 2 0 35 0;
#X connect 3 0 0 0;
#X connect 4 0 2 0;
#X connect 5 0 20 0;
#X connect 5 1 21 0;
#X connect 5 2 8 0;
#X connect 6 0 5 0;
#X connect 7 0 3 1;
#X connect 8 0 9 0;
#X connect 9 0 10 0;
#X connect 10 0 11 0;
#X connect 11 0 7 0;
#X connect 12 0 15 0;
#X connect 13 0 45 0;
#X connect 15 0 6 0;
#X connect 16 0 17 1;
#X connect 16 0 29 0;
#X connect 17 0 18 0;
#X connect 19 0 36 0;
#X connect 20 0 3 0;
#X connect 21 0 0 0;
#X connect 22 0 28 1;
#X connect 25 0 16 0;
#X connect 25 0 49 0;
#X connect 27 0 28 0;
#X connect 28 0 31 0;
#X connect 29 0 30 0;
#X connect 31 0 42 1;
#X connect 32 0 7 1;
#X connect 33 0 15 1;
#X connect 34 0 1 0;
#X connect 35 0 17 0;
#X connect 36 0 12 0;
#X connect 36 1 13 0;
#X connect 36 2 27 0;
#X connect 36 3 22 0;
#X connect 36 4 48 0;
#X connect 37 0 25 0;
#X connect 38 0 37 0;
#X connect 40 0 38 0;
#X connect 41 0 16 0;
#X connect 42 0 16 0;
#X connect 43 0 42 0;
#X connect 44 0 16 0;
#X connect 45 0 41 0;
#X connect 45 1 44 0;
#X connect 45 2 43 0;
#X connect 45 3 46 0;
#X connect 46 0 43 0;
#X connect 47 0 37 0;
#X connect 48 0 40 0;
#X connect 48 1 47 0;
