#N canvas 468 112 859 515 12;
#X symbolatom 108 125 10 0 0 2 Current\ Chord: - - 0;
#X symbolatom 110 173 10 0 0 2 Next\ Chord: - - 0;
#X floatatom 213 124 5 0 0 2 Beats\ Left: - - 0;
#X obj 287 69 r beats-to-next;
#X obj 10 5 r currChordSymbol;
#X obj 19 269 r nextChordSymbol;
#N canvas 10 92 642 532 symbol-cleaner 0;
#X obj 76 5 inlet;
#X text 138 11 receive list chord;
#X obj 12 209 sel '7;
#X msg 14 259 7;
#X obj 13 237 bng 15 250 50 0 empty empty empty 17 7 0 10 #fcfcfc #000000
#000000;
#X obj 87 422 outlet;
#X text 147 418 outlet single symbol;
#X symbolatom 77 78 10 0 0 0 - - - 0;
#X symbolatom 167 79 10 0 0 0 - - - 0;
#X symbolatom 131 390 10 0 0 0 - - - 0;
#X listbox 76 29 20 0 0 0 - - - 0;
#X listbox 76 29 20 0 0 0 - - - 0;
#X obj 76 129 pack s s;
#X obj 76 52 unpack s s;
#X obj 77 101 t b s;
#X symbolatom 54 183 10 0 0 0 - - - 0;
#X obj 76 153 unpack s s;
#X symbolatom 248 207 10 0 0 0 - - - 0;
#X obj 225 312 pack s s;
#X obj 46 325 pack f s;
#X msg 87 359 set \$2\$1;
#X text 248 87 reverse order of elements for proper output order;
#X text 348 208 set chord root;
#X text 63 211 set chord quality;
#X text 88 228 truncate '7 to 7;
#X obj 66 252 sel '6;
#X obj 66 277 bng 15 250 50 0 empty empty empty 17 7 0 10 #fcfcfc #000000
#000000;
#X msg 66 297 6;
#X connect 0 0 11 0;
#X connect 0 0 10 0;
#X connect 2 0 4 0;
#X connect 2 1 25 0;
#X connect 3 0 19 0;
#X connect 4 0 3 0;
#X connect 7 0 14 0;
#X connect 8 0 12 0;
#X connect 10 0 13 0;
#X connect 12 0 16 0;
#X connect 13 0 7 0;
#X connect 13 1 8 0;
#X connect 14 0 12 0;
#X connect 14 1 12 1;
#X connect 15 0 2 0;
#X connect 16 0 15 0;
#X connect 16 1 17 0;
#X connect 17 0 18 1;
#X connect 17 0 19 1;
#X connect 18 0 20 0;
#X connect 19 0 20 0;
#X connect 20 0 9 0;
#X connect 20 0 5 0;
#X connect 25 0 26 0;
#X connect 25 1 18 0;
#X connect 26 0 27 0;
#X connect 27 0 19 0;
#X restore 10 34 pd symbol-cleaner;
#X text 139 5 receive current chord;
#X text 148 265 receive next chord;
#X text 299 44 receive how many beats are left until chord switch;
#X floatatom 117 220 5 0 0 2 Bar: totalBar - 0;
#X floatatom 202 222 5 0 0 2 Beat: totalBeat - 0;
#N canvas 10 92 642 532 symbol-cleaner 0;
#X obj 76 5 inlet;
#X text 138 11 receive list chord;
#X obj 12 209 sel '7;
#X msg 14 259 7;
#X obj 13 237 bng 15 250 50 0 empty empty empty 17 7 0 10 #fcfcfc #000000
#000000;
#X obj 87 422 outlet;
#X text 147 418 outlet single symbol;
#X symbolatom 77 78 10 0 0 0 - - - 0;
#X symbolatom 167 79 10 0 0 0 - - - 0;
#X symbolatom 131 390 10 0 0 0 - - - 0;
#X listbox 76 29 20 0 0 0 - - - 0;
#X listbox 76 29 20 0 0 0 - - - 0;
#X obj 76 129 pack s s;
#X obj 76 52 unpack s s;
#X obj 77 101 t b s;
#X symbolatom 54 183 10 0 0 0 - - - 0;
#X obj 76 153 unpack s s;
#X symbolatom 248 207 10 0 0 0 - - - 0;
#X obj 225 312 pack s s;
#X obj 46 325 pack f s;
#X msg 87 359 set \$2\$1;
#X text 248 87 reverse order of elements for proper output order;
#X text 348 208 set chord root;
#X text 63 211 set chord quality;
#X text 88 228 truncate '7 to 7;
#X obj 66 252 sel '6;
#X obj 66 277 bng 15 250 50 0 empty empty empty 17 7 0 10 #fcfcfc #000000
#000000;
#X msg 66 297 6;
#X connect 0 0 11 0;
#X connect 0 0 10 0;
#X connect 2 0 4 0;
#X connect 2 1 25 0;
#X connect 3 0 19 0;
#X connect 4 0 3 0;
#X connect 7 0 14 0;
#X connect 8 0 12 0;
#X connect 10 0 13 0;
#X connect 12 0 16 0;
#X connect 13 0 7 0;
#X connect 13 1 8 0;
#X connect 14 0 12 0;
#X connect 14 1 12 1;
#X connect 15 0 2 0;
#X connect 16 0 15 0;
#X connect 16 1 17 0;
#X connect 17 0 18 1;
#X connect 17 0 19 1;
#X connect 18 0 20 0;
#X connect 19 0 20 0;
#X connect 20 0 9 0;
#X connect 20 0 5 0;
#X connect 25 0 26 0;
#X connect 25 1 18 0;
#X connect 26 0 27 0;
#X connect 27 0 19 0;
#X restore 22 296 pd symbol-cleaner;
#X obj 210 176 hradio 15 1 0 4 empty empty empty 0 -8 0 10 #fcfcfc
#000000 #000000 0;
#X floatatom 333 152 5 0 0 0 - - - 0;
#X obj 333 118 r totalBeat;
#X obj 333 205 mod 4;
#X floatatom 333 229 5 0 0 0 - - - 0;
#X obj 333 175 - 1;
#X connect 3 0 2 0;
#X connect 4 0 6 0;
#X connect 5 0 12 0;
#X connect 6 0 0 0;
#X connect 12 0 1 0;
#X connect 14 0 18 0;
#X connect 15 0 14 0;
#X connect 16 0 17 0;
#X connect 17 0 13 0;
#X connect 18 0 16 0;
#X coords 0 -1 1 1 200 150 2 100 100;
