#N canvas 131 166 709 439 12;
#X obj 249 32 inlet;
#X text 79 32 receives tempo in bpm;
#X floatatom 249 56 5 0 0 0 - - - 0;
#X obj 225 130 /;
#X obj 193 180 metro;
#X obj 186 228 bng 15 250 50 0 empty empty empty 17 7 0 10 #fcfcfc
#000000 #000000;
#X floatatom 225 154 5 0 0 0 - - - 0;
#X obj 179 154 tgl 15 0 empty empty empty 17 7 0 10 #fcfcfc #000000
#000000 0 1;
#X msg 186 101 60000;
#X text 12 103 turns on metro;
#X obj 186 248 outlet;
#X obj 249 79 t b f;
#X obj 121 103 inlet;
#X obj 278 182 s metroBeat;
#X text 83 271 outputs bangs bpm;
#X connect 0 0 2 0;
#X connect 2 0 11 0;
#X connect 3 0 6 0;
#X connect 4 0 5 0;
#X connect 5 0 10 0;
#X connect 6 0 4 1;
#X connect 6 0 13 0;
#X connect 7 0 4 0;
#X connect 8 0 3 0;
#X connect 11 0 8 0;
#X connect 11 1 3 1;
#X connect 12 0 7 0;
