#N canvas 297 23 1143 855 12;
#X floatatom 393 588 5 0 0 0 - - - 0;
#X text 292 588 note to play;
#X msg 513 73 0;
#X obj 513 51 bng 15 250 50 0 empty empty empty 17 7 0 10 #fcfcfc #000000
#000000;
#X obj 903 107 unpack s;
#X symbolatom 903 131 10 0 0 0 - - - 0;
#X obj 903 83 r nextChordSymbol;
#X floatatom 903 185 5 0 0 0 - - - 0;
#X floatatom 642 470 5 0 0 0 - - - 0;
#X obj 784 165 random 5;
#X floatatom 784 213 5 0 0 0 - - - 0;
#X obj 784 189 - 2;
#X obj 829 281 +;
#X obj 434 325 f;
#X floatatom 434 349 5 0 0 0 - - - 0;
#X obj 470 325 +;
#X text 260 357 octave;
#X obj 321 417 * 12;
#X floatatom 321 441 5 0 0 0 - - - 0;
#X obj 396 496 +;
#N canvas 726 184 511 531 beat-determiner 0;
#X obj 223 333 s beatNewChord;
#X obj 113 340 s beatRegular;
#X obj 343 338 s beatLeadIn;
#X obj 119 67 r metroBang;
#X obj 114 97 bng 15 250 50 0 empty empty empty 17 7 0 10 #fcfcfc #000000
#000000;
#X obj 336 153 r beats-to-next;
#X floatatom 336 207 4 0 0 0 - - - 0;
#X obj 223 309 bng 15 250 50 0 empty empty empty 17 7 0 10 #fcfcfc
#000000 #000000;
#X obj 112 317 bng 15 250 50 0 empty empty empty 17 7 0 10 #fcfcfc
#000000 #000000;
#X obj 343 316 bng 15 250 50 0 empty empty empty 17 7 0 10 #fcfcfc
#000000 #000000;
#X obj 112 158 spigot;
#X obj 112 291 spigot;
#X obj 112 183 bng 15 250 50 0 empty empty empty 17 7 0 10 #fcfcfc
#000000 #000000;
#X obj 228 67 r beats-to-next;
#X floatatom 228 91 5 0 0 0 - - - 0;
#X floatatom 270 116 5 0 0 0 - - - 0;
#X obj 270 92 r beats-of-chord;
#X obj 227 154 tgl 15 0 empty empty empty 17 7 0 10 #fcfcfc #000000
#000000 0 1;
#X obj 227 130 !=;
#X obj 264 145 ==;
#X obj 225 188 spigot;
#X obj 266 168 tgl 15 0 empty empty empty 17 7 0 10 #fcfcfc #000000
#000000 0 1;
#X obj 336 257 tgl 15 0 empty empty empty 17 7 0 10 #fcfcfc #000000
#000000 0 1;
#X obj 378 256 tgl 15 0 empty empty empty 17 7 0 10 #fcfcfc #000000
#000000 0 1;
#X obj 342 291 spigot;
#X obj 336 230 != 1;
#X obj 377 232 == 1;
#X connect 3 0 4 0;
#X connect 4 0 10 0;
#X connect 4 0 20 0;
#X connect 5 0 6 0;
#X connect 6 0 25 0;
#X connect 6 0 26 0;
#X connect 7 0 0 0;
#X connect 8 0 1 0;
#X connect 9 0 2 0;
#X connect 10 0 12 0;
#X connect 11 0 8 0;
#X connect 12 0 11 0;
#X connect 12 0 24 0;
#X connect 13 0 14 0;
#X connect 14 0 18 0;
#X connect 14 0 19 0;
#X connect 15 0 18 1;
#X connect 15 0 19 1;
#X connect 16 0 15 0;
#X connect 17 0 10 1;
#X connect 18 0 17 0;
#X connect 19 0 21 0;
#X connect 20 0 7 0;
#X connect 21 0 20 1;
#X connect 22 0 11 1;
#X connect 23 0 24 1;
#X connect 24 0 9 0;
#X connect 25 0 22 0;
#X connect 26 0 23 0;
#X restore 25 315 pd beat-determiner;
#X obj 783 108 r beatLeadIn;
#X obj 783 133 bng 15 250 50 0 empty empty empty 17 7 0 10 #fcfcfc
#000000 #000000;
#X floatatom 396 520 5 0 0 0 - - - 0;
#X obj 13 13 r beatNewChord;
#X obj 513 23 r beatNewChord;
#X obj 286 77 r beatRegular;
#X obj 286 102 bng 15 250 50 0 empty empty empty 17 7 0 10 #fcfcfc
#000000 #000000;
#X obj 130 11 r metroBang;
#X obj 130 34 bng 15 250 50 0 empty empty empty 17 7 0 10 #fcfcfc #000000
#000000;
#X obj 130 191 spigot;
#X obj 14 218 bng 15 250 50 0 empty empty empty 17 7 0 10 #fcfcfc #000000
#000000;
#X text 35 216 bang for new pattern;
#N canvas 138 23 1261 855 pattern-select 1;
#X obj 37 38 inlet;
#X obj 37 65 bng 15 250 50 0 empty empty empty 17 7 0 10 #fcfcfc #000000
#000000;
#X obj 38 97 random 100;
#X floatatom 38 121 5 0 0 0 - - - 0;
#X obj 38 144 moses 50, f 24;
#X floatatom 38 174 5 0 0 0 - - - 0;
#X obj 236 636 s interval;
#X msg 38 234 -1;
#X floatatom 237 461 5 0 0 0 - - - 0;
#X msg 112 228 1;
#X floatatom 203 169 5 0 0 0 - - - 0;
#X obj 204 193 moses 80, f 32;
#X floatatom 204 217 5 0 0 0 - - - 0;
#X msg 204 267 2;
#X msg 255 269 -2;
#X obj 525 148 r metroBang;
#X obj 525 172 bng 15 250 50 0 empty empty empty 17 7 0 10 #fcfcfc
#000000 #000000;
#X floatatom 525 219 5 0 0 0 - - - 0;
#X floatatom 596 411 5 0 0 0 - - - 0;
#X obj 385 312 spigot;
#X floatatom 360 353 5 0 0 0 - - - 0;
#X floatatom 421 275 5 0 0 0 - - - 0;
#X msg 425 226 1;
#X msg 374 227 0;
#X msg 613 272 0;
#X msg 565 270 -1;
#X msg 526 268 -2;
#X msg 661 271 1;
#X msg 710 270 2;
#X msg 758 272 7;
#X msg 805 270 -7;
#X obj 525 195 random 8;
#X obj 525 242 sel 0 1 2 3 4 5 6 7, f 53;
#X obj 849 271 random 14;
#X obj 849 295 - 7;
#X floatatom 849 319 5 0 0 0 - - - 0;
#X obj 418 463 r octave;
#X floatatom 418 487 5 0 0 0 - - - 0;
#X floatatom 374 579 5 0 0 0 - - - 0;
#X floatatom 444 582 5 0 0 0 - - - 0;
#X floatatom 503 580 5 0 0 0 - - - 0;
#X floatatom 237 611 5 0 0 0 - - - 0;
#X msg 374 602 -1;
#X msg 444 605 0;
#X msg 503 603 1;
#X floatatom 419 642 5 0 0 0 - - - 0;
#X obj 419 665 s octaveLimiter;
#N canvas 520 162 920 621 octave-limiter 0;
#X floatatom 167 59 5 0 0 0 - - - 0;
#X obj 166 33 inlet;
#X obj 181 140 r octaveLimiter;
#X floatatom 181 164 5 0 0 0 - - - 0;
#X obj 332 431 outlet;
#X floatatom 332 406 5 0 0 0 - - - 0;
#X obj 168 231 tgl 15 0 empty empty empty 17 7 0 10 #fcfcfc #000000
#000000 0 1;
#X obj 207 230 tgl 15 0 empty empty empty 17 7 0 10 #fcfcfc #000000
#000000 0 1;
#X obj 167 88 moses 0;
#X floatatom 75 161 5 0 0 0 - - - 0;
#X obj 326 119 moses 1;
#X floatatom 326 151 5 0 0 0 - - - 0;
#X obj 77 281 spigot;
#X obj 101 192 * -1;
#X obj 171 282 spigot;
#X floatatom 171 306 5 0 0 0 - - - 0;
#X obj 572 142 r octaveLimiter;
#X floatatom 572 166 5 0 0 0 - - - 0;
#X obj 560 210 == 1;
#X obj 559 233 tgl 15 0 empty empty empty 17 7 0 10 #fcfcfc #000000
#000000 0 1;
#X obj 598 232 tgl 15 0 empty empty empty 17 7 0 10 #fcfcfc #000000
#000000 0 1;
#X obj 599 209 != 1;
#X floatatom 466 163 5 0 0 0 - - - 0;
#X obj 468 283 spigot;
#X obj 492 194 * -1;
#X obj 562 284 spigot;
#X floatatom 562 308 5 0 0 0 - - - 0;
#X floatatom 80 307 5 0 0 0 - - - 0;
#X floatatom 468 307 5 0 0 0 - - - 0;
#X obj 169 208 == -1;
#X obj 208 207 != -1;
#X connect 0 0 8 0;
#X connect 1 0 0 0;
#X connect 2 0 3 0;
#X connect 3 0 29 0;
#X connect 3 0 30 0;
#X connect 5 0 4 0;
#X connect 6 0 14 1;
#X connect 7 0 12 1;
#X connect 8 0 9 0;
#X connect 8 1 10 0;
#X connect 9 0 12 0;
#X connect 9 0 13 0;
#X connect 10 0 11 0;
#X connect 10 1 22 0;
#X connect 11 0 5 0;
#X connect 12 0 27 0;
#X connect 13 0 14 0;
#X connect 14 0 15 0;
#X connect 15 0 5 0;
#X connect 16 0 17 0;
#X connect 17 0 18 0;
#X connect 17 0 21 0;
#X connect 18 0 19 0;
#X connect 19 0 25 1;
#X connect 20 0 23 1;
#X connect 21 0 20 0;
#X connect 22 0 23 0;
#X connect 22 0 24 0;
#X connect 23 0 28 0;
#X connect 24 0 25 0;
#X connect 25 0 26 0;
#X connect 26 0 5 0;
#X connect 27 0 5 0;
#X connect 28 0 5 0;
#X connect 29 0 6 0;
#X connect 30 0 7 0;
#X restore 238 503 pd octave-limiter;
#X obj 388 541 moses 0;
#X obj 418 510 moses 2;
#X obj 38 197 moses 20, f 11;
#X obj 204 240 moses 60;
#X connect 0 0 1 0;
#X connect 1 0 2 0;
#X connect 2 0 3 0;
#X connect 3 0 4 0;
#X connect 4 0 5 0;
#X connect 4 0 23 0;
#X connect 4 1 10 0;
#X connect 5 0 50 0;
#X connect 7 0 8 0;
#X connect 8 0 47 0;
#X connect 9 0 8 0;
#X connect 10 0 11 0;
#X connect 11 0 12 0;
#X connect 11 0 23 0;
#X connect 11 1 22 0;
#X connect 12 0 51 0;
#X connect 13 0 8 0;
#X connect 14 0 8 0;
#X connect 15 0 16 0;
#X connect 16 0 31 0;
#X connect 17 0 32 0;
#X connect 18 0 19 0;
#X connect 19 0 20 0;
#X connect 20 0 8 0;
#X connect 21 0 19 1;
#X connect 22 0 21 0;
#X connect 23 0 21 0;
#X connect 24 0 18 0;
#X connect 25 0 18 0;
#X connect 26 0 18 0;
#X connect 27 0 18 0;
#X connect 28 0 18 0;
#X connect 29 0 18 0;
#X connect 30 0 18 0;
#X connect 31 0 17 0;
#X connect 32 0 26 0;
#X connect 32 1 25 0;
#X connect 32 2 24 0;
#X connect 32 3 27 0;
#X connect 32 4 28 0;
#X connect 32 5 29 0;
#X connect 32 6 30 0;
#X connect 32 7 33 0;
#X connect 33 0 34 0;
#X connect 34 0 35 0;
#X connect 35 0 18 0;
#X connect 36 0 37 0;
#X connect 37 0 49 0;
#X connect 38 0 42 0;
#X connect 39 0 43 0;
#X connect 40 0 44 0;
#X connect 41 0 6 0;
#X connect 42 0 45 0;
#X connect 43 0 45 0;
#X connect 44 0 45 0;
#X connect 45 0 46 0;
#X connect 47 0 41 0;
#X connect 48 0 38 0;
#X connect 48 1 39 0;
#X connect 49 0 48 0;
#X connect 49 1 40 0;
#X connect 50 0 7 0;
#X connect 50 1 9 0;
#X connect 51 0 13 0;
#X connect 51 1 14 0;
#X restore 12 254 pd pattern-select;
#X floatatom 186 65 5 0 0 0 - - - 0;
#X obj 186 41 r totalBeat;
#X obj 186 88 mod 4;
#X floatatom 186 112 5 0 0 0 - - - 0;
#X obj 186 166 tgl 15 0 empty empty empty 17 7 0 10 #fcfcfc #000000
#000000 0 1;
#X obj 186 139 == 1;
#X obj 516 316 r interval;
#X floatatom 516 340 5 0 0 0 - - - 0;
#X floatatom 433 370 5 0 0 0 - - - 0;
#X obj 433 393 mod 7;
#X floatatom 433 417 5 0 0 0 - - - 0;
#X obj 321 333 div 7;
#X floatatom 321 356 6 0 0 0 - - - 0;
#X obj 433 440 tabread currScale;
#X obj 674 29 r octave;
#X obj 236 436 s octave;
#X floatatom 614 107 5 0 0 0 - - - 0;
#X obj 514 102 +;
#X obj 711 329 +;
#X floatatom 674 61 5 0 0 0 - - - 0;
#X floatatom 433 464 5 0 0 0 - - - 0;
#X obj 614 83 * 7;
#X obj 674 152 * 12;
#X floatatom 674 176 5 0 0 0 - - - 0;
#X floatatom 406 36 5 0 0 0 - - - 0;
#X obj 406 14 r totalBeat;
#X floatatom 406 83 5 0 0 0 - - - 0;
#X obj 406 137 tgl 15 0 empty empty empty 17 7 0 10 #fcfcfc #000000
#000000 0 1;
#X obj 406 59 mod 2;
#X obj 254 196 spigot;
#X obj 444 136 tgl 15 0 empty empty empty 17 7 0 10 #fcfcfc #000000
#000000 0 1;
#X obj 341 153 spigot;
#X msg 412 238 4;
#X obj 412 275 +;
#X obj 254 220 bng 15 250 50 0 empty empty empty 17 7 0 10 #fcfcfc
#000000 #000000;
#X obj 344 225 bng 15 250 50 0 empty empty empty 17 7 0 10 #fcfcfc
#000000 #000000;
#X obj 412 216 bng 15 250 50 0 empty empty empty 17 7 0 10 #fcfcfc
#000000 #000000;
#X obj 406 110 == 1;
#X obj 444 111 == 0;
#X obj 341 177 random 3;
#X obj 341 201 sel 0 1;
#X obj 370 225 bng 15 250 50 0 empty empty empty 17 7 0 10 #fcfcfc
#000000 #000000;
#X msg 377 243 -4;
#X obj 393 636 outlet;
#X obj 251 399 moses 0;
#N canvas 31 91 1155 300 noteToMidi 0;
#X floatatom 213 164 5 0 0 0 - - - 0;
#X msg 35 118 36;
#X msg 72 118 37;
#X msg 105 118 38;
#X msg 142 118 39;
#X obj 49 84 sel C C# Db D D# Eb E F F# Gb G G# Ab A A# Bb B, f 57
;
#X text -19 163 converted root in lowest octave;
#X obj 64 32 inlet;
#X text 125 34 receive symbol note;
#X obj 219 222 outlet;
#X msg 175 118 28;
#X msg 212 118 29;
#X msg 245 118 30;
#X msg 280 118 31;
#X msg 315 118 32;
#X msg 352 118 33;
#X msg 385 118 34;
#X msg 422 118 35;
#X connect 0 0 9 0;
#X connect 1 0 0 0;
#X connect 2 0 0 0;
#X connect 3 0 0 0;
#X connect 4 0 0 0;
#X connect 5 0 1 0;
#X connect 5 1 2 0;
#X connect 5 2 2 0;
#X connect 5 3 3 0;
#X connect 5 4 4 0;
#X connect 5 5 4 0;
#X connect 5 6 10 0;
#X connect 5 7 11 0;
#X connect 5 8 12 0;
#X connect 5 9 12 0;
#X connect 5 10 13 0;
#X connect 5 11 14 0;
#X connect 5 12 14 0;
#X connect 5 13 15 0;
#X connect 5 14 16 0;
#X connect 5 15 16 0;
#X connect 5 16 17 0;
#X connect 7 0 5 0;
#X connect 10 0 0 0;
#X connect 11 0 0 0;
#X connect 12 0 0 0;
#X connect 13 0 0 0;
#X connect 14 0 0 0;
#X connect 15 0 0 0;
#X connect 16 0 0 0;
#X connect 17 0 0 0;
#X restore 903 155 pd noteToMidi;
#N canvas 801 446 450 300 rangeLimiter 0;
#X obj 96 12 inlet;
#X floatatom 96 36 5 0 0 0 - - - 0;
#X obj 96 59 moses 28;
#X floatatom 119 149 5 0 0 0 - - - 0;
#X obj 119 172 outlet;
#X obj 95 88 + 12;
#X connect 0 0 1 0;
#X connect 1 0 2 0;
#X connect 2 0 5 0;
#X connect 2 1 3 0;
#X connect 3 0 4 0;
#X connect 5 0 3 0;
#X restore 393 563 pd rangeLimiter;
#X text 503 565 prevents notes too low from being played;
#X text 27 406 prevents negative octave loops;
#X connect 0 0 77 0;
#X connect 2 0 51 0;
#X connect 3 0 2 0;
#X connect 4 0 5 0;
#X connect 5 0 79 0;
#X connect 6 0 4 0;
#X connect 7 0 12 1;
#X connect 8 0 80 0;
#X connect 9 0 11 0;
#X connect 10 0 12 0;
#X connect 11 0 10 0;
#X connect 12 0 52 0;
#X connect 13 0 14 0;
#X connect 13 0 15 0;
#X connect 14 0 42 0;
#X connect 15 0 13 1;
#X connect 17 0 18 0;
#X connect 18 0 19 1;
#X connect 19 0 23 0;
#X connect 21 0 22 0;
#X connect 22 0 9 0;
#X connect 23 0 80 0;
#X connect 24 0 31 0;
#X connect 25 0 3 0;
#X connect 26 0 27 0;
#X connect 27 0 63 0;
#X connect 27 0 65 0;
#X connect 28 0 29 0;
#X connect 29 0 30 0;
#X connect 30 0 31 0;
#X connect 31 0 33 0;
#X connect 34 0 36 0;
#X connect 35 0 34 0;
#X connect 36 0 37 0;
#X connect 37 0 39 0;
#X connect 38 0 30 1;
#X connect 39 0 38 0;
#X connect 40 0 41 0;
#X connect 41 0 15 1;
#X connect 42 0 43 0;
#X connect 42 0 45 0;
#X connect 43 0 44 0;
#X connect 44 0 47 0;
#X connect 45 0 46 0;
#X connect 46 0 78 0;
#X connect 46 0 17 0;
#X connect 47 0 54 0;
#X connect 48 0 53 0;
#X connect 50 0 51 1;
#X connect 50 0 67 1;
#X connect 51 0 13 0;
#X connect 52 0 8 0;
#X connect 53 0 55 0;
#X connect 53 0 56 0;
#X connect 54 0 19 0;
#X connect 55 0 50 0;
#X connect 56 0 57 0;
#X connect 57 0 52 1;
#X connect 58 0 62 0;
#X connect 59 0 58 0;
#X connect 60 0 71 0;
#X connect 60 0 72 0;
#X connect 61 0 65 1;
#X connect 62 0 60 0;
#X connect 63 0 68 0;
#X connect 64 0 63 1;
#X connect 65 0 73 0;
#X connect 66 0 67 0;
#X connect 67 0 13 0;
#X connect 68 0 13 0;
#X connect 69 0 13 0;
#X connect 70 0 66 0;
#X connect 71 0 61 0;
#X connect 72 0 64 0;
#X connect 73 0 74 0;
#X connect 74 0 69 0;
#X connect 74 1 75 0;
#X connect 74 2 70 0;
#X connect 75 0 76 0;
#X connect 76 0 67 0;
#X connect 78 1 49 0;
#X connect 79 0 7 0;
#X connect 80 0 0 0;
