#N canvas 337 160 955 718 12;
#X obj 400 79 bng 15 250 50 0 empty empty empty 17 7 0 10 #fcfcfc #000000
#000000;
#X obj 247 168 tabread currChord;
#X msg 247 140 0;
#X obj 417 168 tabread currChord;
#X obj 557 168 tabread currChord;
#X obj 712 172 tabread currChord;
#X msg 417 140 1;
#X msg 557 140 2;
#X msg 712 144 3;
#X floatatom 247 196 5 0 0 0 - - - 0;
#X floatatom 417 196 5 0 0 0 - - - 0;
#X floatatom 557 196 5 0 0 0 - - - 0;
#X floatatom 712 200 5 0 0 0 - - - 0;
#X obj 712 243 + 24;
#X obj 559 233 + 24;
#X obj 417 231 + 24;
#X obj 247 240 + 24;
#N canvas 71 139 1369 677 voicing 0;
#X obj 203 34 inlet;
#X obj 203 60 bng 15 250 50 0 empty empty empty 17 7 0 10 #fcfcfc #000000
#000000;
#X obj 210 134 random 100;
#X floatatom 215 208 5 0 0 0 - - - 0;
#X msg 345 346 \; compRoot 24 \; compThird 24 \; compFifth 24 \; compSeventh
24 \;, f 17;
#X obj 542 291 random 100;
#X obj 542 315 moses 50;
#X msg 545 393 \; compRoot 24 \;;
#X msg 518 351 \; compRoot 12 \;;
#X obj 670 293 random 100;
#X obj 670 317 moses 50;
#X obj 744 445 random 100;
#X obj 744 469 moses 50;
#X obj 621 440 random 100;
#X obj 621 464 moses 50;
#X msg 646 353 \; compThird 12 \;;
#X msg 673 395 \; compThird 24 \;;
#X msg 597 500 \; compFifth 12 \;;
#X msg 624 542 \; compFifth 24 \;;
#X msg 720 505 \; compSeventh 12 \;;
#X msg 747 547 \; compSeventh 24 \;;
#X obj 549 257 bng 15 250 50 0 empty empty empty 17 7 0 10 #fcfcfc
#000000 #000000;
#X obj 215 231 moses 80, f 46;
#X obj 210 292 moses 40;
#X msg 183 339 \; compRoot 12 \; compThird 12 \; compFifth 12 \; compSeventh
12 \;, f 17;
#X connect 0 0 1 0;
#X connect 1 0 2 0;
#X connect 2 0 3 0;
#X connect 3 0 22 0;
#X connect 5 0 6 0;
#X connect 6 0 8 0;
#X connect 6 1 7 0;
#X connect 9 0 10 0;
#X connect 10 0 15 0;
#X connect 10 1 16 0;
#X connect 11 0 12 0;
#X connect 12 0 19 0;
#X connect 12 1 20 0;
#X connect 13 0 14 0;
#X connect 14 0 17 0;
#X connect 14 1 18 0;
#X connect 21 0 5 0;
#X connect 21 0 9 0;
#X connect 21 0 13 0;
#X connect 21 0 11 0;
#X connect 22 0 23 0;
#X connect 22 1 21 0;
#X connect 23 0 24 0;
#X connect 23 1 4 0;
#X restore 98 110 pd voicing;
#X obj 290 218 r compRoot;
#X obj 462 211 r compThird;
#X obj 596 214 r compFifth;
#X obj 750 220 r compSeventh;
#X obj 430 428 pack f f f f;
#X obj 430 485 outlet;
#X obj 400 99 t b b b b;
#N canvas 976 493 450 300 rangeLimiterPiano 0;
#X floatatom 25 43 5 0 0 0 - - - 0;
#X obj 26 17 inlet;
#X floatatom 31 137 5 0 0 0 - - - 0;
#X obj 31 160 outlet;
#X obj 25 90 + 12;
#X obj 25 66 moses 48;
#X connect 0 0 5 0;
#X connect 1 0 0 0;
#X connect 2 0 3 0;
#X connect 4 0 2 0;
#X connect 5 0 4 0;
#X connect 5 1 2 0;
#X restore 247 296 pd rangeLimiterPiano;
#X floatatom 247 264 5 0 0 0 - - - 0;
#X floatatom 417 255 5 0 0 0 - - - 0;
#X floatatom 559 257 5 0 0 0 - - - 0;
#X floatatom 712 267 5 0 0 0 - - - 0;
#N canvas 976 493 450 300 rangeLimiterPiano 0;
#X floatatom 25 43 5 0 0 0 - - - 0;
#X obj 26 17 inlet;
#X floatatom 31 137 5 0 0 0 - - - 0;
#X obj 31 160 outlet;
#X obj 25 90 + 12;
#X obj 25 66 moses 48;
#X connect 0 0 5 0;
#X connect 1 0 0 0;
#X connect 2 0 3 0;
#X connect 4 0 2 0;
#X connect 5 0 4 0;
#X connect 5 1 2 0;
#X restore 407 296 pd rangeLimiterPiano;
#N canvas 976 493 450 300 rangeLimiterPiano 0;
#X floatatom 25 43 5 0 0 0 - - - 0;
#X obj 26 17 inlet;
#X floatatom 31 137 5 0 0 0 - - - 0;
#X obj 31 160 outlet;
#X obj 25 90 + 12;
#X obj 25 66 moses 48;
#X connect 0 0 5 0;
#X connect 1 0 0 0;
#X connect 2 0 3 0;
#X connect 4 0 2 0;
#X connect 5 0 4 0;
#X connect 5 1 2 0;
#X restore 557 296 pd rangeLimiterPiano;
#N canvas 976 493 450 300 rangeLimiterPiano 0;
#X floatatom 25 43 5 0 0 0 - - - 0;
#X obj 26 17 inlet;
#X floatatom 31 137 5 0 0 0 - - - 0;
#X obj 31 160 outlet;
#X obj 25 90 + 12;
#X obj 25 66 moses 48;
#X connect 0 0 5 0;
#X connect 1 0 0 0;
#X connect 2 0 3 0;
#X connect 4 0 2 0;
#X connect 5 0 4 0;
#X connect 5 1 2 0;
#X restore 710 295 pd rangeLimiterPiano;
#X obj 395 45 r newChordBang;
#N canvas 331 198 593 645 chord-beat-determiner 0;
#X obj 119 67 r metroBang;
#X obj 223 234 bng 15 250 50 0 empty empty empty 17 7 0 10 #fcfcfc
#000000 #000000;
#X obj 129 410 spigot;
#X obj 228 67 r beats-to-next;
#X floatatom 228 91 5 0 0 0 - - - 0;
#X floatatom 270 116 5 0 0 0 - - - 0;
#X obj 270 92 r beats-of-chord;
#X obj 264 145 ==;
#X obj 225 188 spigot;
#X obj 266 168 tgl 15 0 empty empty empty 17 7 0 10 #fcfcfc #000000
#000000 0 1;
#X obj 140 499 s chordBeat;
#X obj 121 112 bng 15 250 50 0 empty empty empty 17 7 0 10 #fcfcfc
#000000 #000000;
#X obj 272 269 r compingStyle;
#X obj 226 409 spigot;
#X floatatom 272 293 5 0 0 0 - - - 0;
#X obj 262 381 tgl 15 0 empty empty empty 17 7 0 10 #fcfcfc #000000
#000000 0 1;
#X obj 174 384 tgl 15 0 empty empty empty 17 7 0 10 #fcfcfc #000000
#000000 0 1;
#X obj 137 439 bng 15 250 50 0 empty empty empty 17 7 0 10 #fcfcfc
#000000 #000000;
#X obj 282 330 == 0;
#X obj 389 170 del;
#X obj 432 129 r metroBeat;
#X obj 432 153 * 0.5;
#X obj 375 147 bng 15 250 50 0 empty empty empty 17 7 0 10 #fcfcfc
#000000 #000000;
#X obj 380 201 bng 15 250 50 0 empty empty empty 17 7 0 10 #fcfcfc
#000000 #000000;
#X obj 333 419 spigot;
#X obj 236 327 == 1;
#X obj 330 334 == 2;
#X obj 371 394 tgl 15 0 empty empty empty 17 7 0 10 #fcfcfc #000000
#000000 0 1;
#X obj 283 478 s chordArpeggioBeat;
#X obj 333 443 t b b;
#X connect 0 0 11 0;
#X connect 1 0 13 0;
#X connect 2 0 17 0;
#X connect 3 0 4 0;
#X connect 4 0 7 0;
#X connect 5 0 7 1;
#X connect 6 0 5 0;
#X connect 7 0 9 0;
#X connect 8 0 1 0;
#X connect 9 0 8 1;
#X connect 11 0 8 0;
#X connect 11 0 2 0;
#X connect 11 0 22 0;
#X connect 12 0 14 0;
#X connect 13 0 17 0;
#X connect 14 0 18 0;
#X connect 14 0 25 0;
#X connect 14 0 26 0;
#X connect 15 0 13 1;
#X connect 16 0 2 1;
#X connect 17 0 10 0;
#X connect 18 0 15 0;
#X connect 19 0 23 0;
#X connect 20 0 21 0;
#X connect 21 0 19 1;
#X connect 22 0 19 0;
#X connect 22 0 23 0;
#X connect 23 0 24 0;
#X connect 24 0 29 0;
#X connect 25 0 16 0;
#X connect 26 0 27 0;
#X connect 27 0 24 1;
#X connect 29 0 28 0;
#X connect 29 1 17 0;
#X restore 33 247 pd chord-beat-determiner;
#X obj 390 452 list;
#X obj 259 411 r chordBeat;
#X connect 0 0 24 0;
#X connect 0 0 17 0;
#X connect 1 0 9 0;
#X connect 2 0 1 0;
#X connect 3 0 10 0;
#X connect 4 0 11 0;
#X connect 5 0 12 0;
#X connect 6 0 3 0;
#X connect 7 0 4 0;
#X connect 8 0 5 0;
#X connect 9 0 16 0;
#X connect 10 0 15 0;
#X connect 11 0 14 0;
#X connect 12 0 13 0;
#X connect 13 0 29 0;
#X connect 14 0 28 0;
#X connect 15 0 27 0;
#X connect 16 0 26 0;
#X connect 18 0 16 1;
#X connect 19 0 15 1;
#X connect 20 0 14 1;
#X connect 21 0 13 1;
#X connect 22 0 35 1;
#X connect 24 0 2 0;
#X connect 24 1 6 0;
#X connect 24 2 7 0;
#X connect 24 3 8 0;
#X connect 25 0 22 0;
#X connect 26 0 25 0;
#X connect 27 0 30 0;
#X connect 28 0 31 0;
#X connect 29 0 32 0;
#X connect 30 0 22 1;
#X connect 31 0 22 2;
#X connect 32 0 22 3;
#X connect 33 0 0 0;
#X connect 35 0 23 0;
#X connect 36 0 35 0;
