#N canvas 0 25 1440 771 12;
#X obj 436 161 symbol-display;
#N canvas 149 307 940 487 input-reader 0;
#X obj 146 179 file-reader, f 23;
#X symbolatom 56 237 10 0 0 0 - - - 0;
#X symbolatom 132 237 10 0 0 0 - - - 0;
#X floatatom 141 53 5 0 0 0 - - - 0;
#X text 38 56 line to read;
#X obj 52 265 chord-reader;
#X floatatom 209 294 5 0 0 0 - - - 0;
#X symbolatom 256 237 10 0 0 0 - - - 0;
#X symbolatom 338 236 10 0 0 0 - - - 0;
#X msg 351 100 giant-steps;
#X msg 351 126 cherokee;
#X msg 351 155 there-will-never;
#X obj 140 9 r currLine;
#X obj 185 326 s newChordBeats;
#X obj 523 149 bng 15 250 50 0 empty empty Tal\\\ Tal\\\ Heights 17
7 0 10 #fcfcfc #000000 #000000;
#X obj 523 180 bng 15 250 50 0 empty empty Giant\\\ Steps 17 7 0 10
#fcfcfc #000000 #000000;
#X obj 523 209 bng 15 250 50 0 empty empty Cherokee 17 7 0 10 #fcfcfc
#000000 #000000;
#X obj 523 239 bng 15 250 50 0 empty empty There\\\ Will\\\ Never\\\ Be\\\ Another\\\ You
17 7 0 10 #fcfcfc #000000 #000000;
#X obj 523 269 bng 15 250 50 0 empty empty This\\\ I\\\ Dig\\\ Of\\\ You
17 7 0 10 #fcfcfc #000000 #000000;
#X text 303 325 send how many beats are in the new chord;
#X text 279 259 next chord;
#X text 74 292 current chord;
#X obj 789 151 pack f s f;
#X obj 829 29 r numChords;
#X obj 829 53 t b f;
#X msg 789 175 set \$1\$2\$3;
#X listbox 787 121 4 0 0 0 - - - 0;
#X symbolatom 635 195 10 0 0 2 Current\ Chord: - - 0;
#X msg 779 92 symbol /;
#X floatatom 691 29 5 0 0 0 - - - 0;
#X obj 691 52 + 1;
#X text 539 50 Other:;
#X msg 355 48 dark-coffee;
#X obj 523 119 bng 15 250 50 0 empty empty Fragrance\\\ of\\\ Dark\\\ Coffee
17 7 0 10 #fcfcfc #000000 #000000;
#X msg 539 72;
#X obj 262 128 t b a;
#X obj 313 25 bng 15 250 50 0 empty empty empty 17 7 0 10 #fcfcfc #000000
#000000;
#X obj 319 5 r resetSong;
#X obj 665 154 bng 15 250 50 0 empty empty Restart: 17 7 0 10 #fcfcfc
#000000 #000000;
#X obj 783 264 s resetSong;
#X msg 243 24 -1;
#X msg 352 182 this-i-dig;
#X msg 350 73 tal-tal-heights;
#X msg 169 87 jubilife;
#X msg 263 79 donna-lee;
#X connect 0 0 1 0;
#X connect 0 1 2 0;
#X connect 0 2 6 0;
#X connect 0 3 7 0;
#X connect 0 4 8 0;
#X connect 1 0 5 0;
#X connect 2 0 5 1;
#X connect 3 0 0 0;
#X connect 3 0 29 0;
#X connect 6 0 13 0;
#X connect 9 0 35 0;
#X connect 10 0 35 0;
#X connect 11 0 35 0;
#X connect 12 0 3 0;
#X connect 14 0 42 0;
#X connect 15 0 9 0;
#X connect 16 0 10 0;
#X connect 17 0 11 0;
#X connect 18 0 41 0;
#X connect 22 0 25 0;
#X connect 23 0 24 0;
#X connect 24 0 28 0;
#X connect 24 1 22 2;
#X connect 25 0 27 0;
#X connect 26 0 22 1;
#X connect 28 0 26 0;
#X connect 29 0 30 0;
#X connect 30 0 22 0;
#X connect 32 0 35 0;
#X connect 33 0 32 0;
#X connect 34 0 35 0;
#X connect 35 1 0 1;
#X connect 36 0 40 0;
#X connect 37 0 36 0;
#X connect 38 0 39 0;
#X connect 40 0 3 0;
#X connect 41 0 35 0;
#X connect 42 0 35 0;
#X connect 43 0 35 0;
#X connect 44 0 35 0;
#X coords 0 -1 1 1 250 200 2 500 100;
#X restore 173 161 pd input-reader;
#N canvas 846 305 594 476 counters 0;
#X obj 220 167 tempo-to-metro;
#X floatatom 108 130 5 0 0 2 Tempo\ (BPM): - - 0;
#X obj 175 165 bng 15 250 50 0 empty empty empty 17 7 0 10 #fcfcfc
#000000 #000000;
#X text 8 126 tempo in bpm;
#X text 108 333 current chord/line;
#X floatatom 62 332 5 0 0 0 - - - 0;
#X obj 109 164 tgl 15 0 empty empty ON/OFF 17 7 0 10 #fcfcfc #000000
#000000 0 1;
#N canvas 193 326 979 787 chord-counter 0;
#X obj 265 21 inlet;
#X obj 316 108 + 1;
#X obj 259 112 f;
#X floatatom 259 136 5 0 0 0 - - - 0;
#X obj 346 481 outlet;
#X text 316 22 get metro in;
#X obj 39 11 inlet;
#X text 82 12 get num beats;
#X obj 260 174 sel, f 11;
#X floatatom 39 35 5 0 0 0 - - - 0;
#X obj 326 198 + 1;
#X obj 269 202 f;
#X floatatom 269 226 5 0 0 0 - - - 0;
#X obj 414 165 bng 15 250 50 0 empty empty empty 17 7 0 10 #fcfcfc
#000000 #000000;
#X msg 59 336 0;
#X msg 400 73 1;
#X obj 271 345 sel;
#X floatatom 310 292 5 0 0 0 - - - 0;
#X obj 61 366 bng 15 250 50 0 empty empty empty 17 7 0 10 #fcfcfc #000000
#000000;
#X text 9 390 reset when chord limit hit (loop);
#X floatatom 351 431 5 0 0 0 - - - 0;
#X obj 310 315 - 1;
#X obj 310 267 r numChords;
#X floatatom 38 198 9 0 0 0 - - - 0;
#X obj 38 135 f;
#X obj 77 134 - 1;
#X obj 38 221 s beats-to-next;
#X obj 460 100 s metroBang;
#X text 472 147 send bang every metro tick;
#X obj 711 110 + 1;
#X obj 674 110 f;
#X floatatom 674 134 5 0 0 0 - - - 0;
#X obj 715 237 + 1;
#X obj 678 237 f;
#X floatatom 678 261 5 0 0 0 - - - 0;
#X obj 674 157 mod 4;
#X text 722 132 total beat;
#X text 719 260 total bar;
#X msg 539 335 1;
#X obj 634 236 bng 15 250 50 0 empty empty empty 17 7 0 10 #fcfcfc
#000000 #000000;
#X obj 674 211 sel 1;
#X obj 453 295 sel 0;
#X text 452 368 reset bar/beat tracking on loop;
#X floatatom 674 181 5 0 0 0 - - - 0;
#X text 496 217 bang start of new bar;
#X obj 726 155 s totalBeat;
#X obj 723 286 s totalBar;
#X obj 38 274 r resetSong;
#X obj 102 62 s beats-of-chord;
#X obj 464 65 t b b;
#X text 397 435 current chord/line;
#X obj 414 486 s currLine;
#X obj 515 273 r resetSong;
#X obj 265 45 t b b b;
#X connect 0 0 53 0;
#X connect 1 0 2 1;
#X connect 2 0 1 0;
#X connect 2 0 3 0;
#X connect 3 0 8 0;
#X connect 6 0 9 0;
#X connect 8 0 11 0;
#X connect 9 0 8 1;
#X connect 9 0 24 1;
#X connect 9 0 48 0;
#X connect 10 0 11 1;
#X connect 11 0 10 0;
#X connect 11 0 12 0;
#X connect 12 0 13 0;
#X connect 12 0 16 0;
#X connect 12 0 20 0;
#X connect 12 0 41 0;
#X connect 13 0 15 0;
#X connect 14 0 11 1;
#X connect 15 0 2 1;
#X connect 16 0 18 0;
#X connect 17 0 21 0;
#X connect 18 0 14 0;
#X connect 20 0 4 0;
#X connect 20 0 51 0;
#X connect 21 0 16 1;
#X connect 22 0 17 0;
#X connect 23 0 26 0;
#X connect 24 0 23 0;
#X connect 24 0 25 0;
#X connect 25 0 24 1;
#X connect 29 0 30 1;
#X connect 30 0 29 0;
#X connect 30 0 31 0;
#X connect 31 0 35 0;
#X connect 31 0 45 0;
#X connect 32 0 33 1;
#X connect 33 0 32 0;
#X connect 33 0 34 0;
#X connect 34 0 46 0;
#X connect 35 0 43 0;
#X connect 38 0 30 1;
#X connect 38 0 33 1;
#X connect 40 0 33 0;
#X connect 40 0 39 0;
#X connect 41 0 38 0;
#X connect 43 0 40 0;
#X connect 47 0 14 0;
#X connect 49 0 27 0;
#X connect 49 1 30 0;
#X connect 52 0 38 0;
#X connect 53 0 24 0;
#X connect 53 1 49 0;
#X connect 53 2 2 0;
#X restore 183 304 pd chord-counter;
#X obj 204 44 loadbang;
#X obj 65 259 r newChordBeats;
#X msg 214 68 160;
#N canvas 61 23 887 787 chord-counter 0;
#X obj 265 31 inlet;
#X obj 316 108 + 1;
#X obj 259 112 f;
#X floatatom 259 136 5 0 0 0 - - - 0;
#X obj 346 481 outlet;
#X text 316 33 get metro in;
#X obj 39 11 inlet;
#X text 82 12 get num beats;
#X obj 260 174 sel, f 11;
#X floatatom 39 35 5 0 0 0 - - - 0;
#X obj 326 198 + 1;
#X obj 269 202 f;
#X floatatom 269 226 5 0 0 0 - - - 0;
#X obj 406 221 bng 15 250 50 0 empty empty empty 17 7 0 10 #fcfcfc
#000000 #000000;
#X msg 59 336 0;
#X msg 409 98 1;
#X obj 271 345 sel;
#X floatatom 310 292 5 0 0 0 - - - 0;
#X obj 61 366 bng 15 250 50 0 empty empty empty 17 7 0 10 #fcfcfc #000000
#000000;
#X text 9 390 reset when chord limit hit (loop);
#X floatatom 351 431 5 0 0 0 - - - 0;
#X obj 310 315 - 1;
#X obj 310 267 r numChords;
#X floatatom 38 168 9 0 0 0 - - - 0;
#X obj 38 135 f;
#X obj 120 85 bng 15 250 50 0 empty empty empty 17 7 0 10 #fcfcfc #000000
#000000;
#X obj 77 134 - 1;
#X obj 38 191 s beats-to-next;
#X obj 460 100 s metroBang;
#X text 577 40 send bang every metro tick;
#X obj 711 110 + 1;
#X obj 674 110 f;
#X floatatom 674 134 5 0 0 0 - - - 0;
#X obj 715 237 + 1;
#X obj 678 237 f;
#X floatatom 678 261 5 0 0 0 - - - 0;
#X obj 674 157 mod 4;
#X text 722 132 total beat;
#X text 719 260 total bar;
#X msg 462 340 1;
#X obj 634 236 bng 15 250 50 0 empty empty empty 17 7 0 10 #fcfcfc
#000000 #000000;
#X obj 674 211 sel 1;
#X obj 453 295 sel 0;
#X text 452 368 reset bar/beat tracking on loop;
#X floatatom 674 181 5 0 0 0 - - - 0;
#X text 496 217 bang start of new bar;
#X obj 726 155 s totalBeat;
#X obj 723 286 s totalBar;
#X obj 38 274 r resetSong;
#X obj 548 334 r resetSong;
#X obj 456 153 s newChordBang;
#X text 457 177 bang on new chord;
#X obj 82 50 s beats-of-chord;
#X obj 464 65 t b b;
#X text 397 435 current chord/line;
#X obj 414 486 s currLine;
#X connect 0 0 2 0;
#X connect 0 0 25 0;
#X connect 0 0 53 0;
#X connect 1 0 2 1;
#X connect 2 0 1 0;
#X connect 2 0 3 0;
#X connect 3 0 8 0;
#X connect 6 0 9 0;
#X connect 8 0 11 0;
#X connect 9 0 8 1;
#X connect 9 0 24 1;
#X connect 9 0 52 0;
#X connect 10 0 11 1;
#X connect 11 0 10 0;
#X connect 11 0 12 0;
#X connect 12 0 13 0;
#X connect 12 0 16 0;
#X connect 12 0 20 0;
#X connect 12 0 42 0;
#X connect 13 0 15 0;
#X connect 13 0 50 0;
#X connect 14 0 11 1;
#X connect 15 0 2 1;
#X connect 16 0 18 0;
#X connect 17 0 21 0;
#X connect 18 0 14 0;
#X connect 20 0 4 0;
#X connect 20 0 55 0;
#X connect 21 0 16 1;
#X connect 22 0 17 0;
#X connect 23 0 27 0;
#X connect 24 0 23 0;
#X connect 24 0 26 0;
#X connect 25 0 24 0;
#X connect 26 0 24 1;
#X connect 30 0 31 1;
#X connect 31 0 30 0;
#X connect 31 0 32 0;
#X connect 32 0 36 0;
#X connect 32 0 46 0;
#X connect 33 0 34 1;
#X connect 34 0 33 0;
#X connect 34 0 35 0;
#X connect 35 0 47 0;
#X connect 36 0 44 0;
#X connect 39 0 31 1;
#X connect 39 0 34 1;
#X connect 41 0 34 0;
#X connect 41 0 40 0;
#X connect 42 0 39 0;
#X connect 44 0 41 0;
#X connect 48 0 14 0;
#X connect 49 0 39 0;
#X connect 53 0 28 0;
#X connect 53 1 31 0;
#X restore 43 294 pd chord-counter;
#X obj 19 214 s mainToggle;
#X connect 0 0 2 0;
#X connect 1 0 0 1;
#X connect 2 0 11 1;
#X connect 6 0 0 0;
#X connect 6 0 12 0;
#X connect 8 0 10 0;
#X connect 9 0 11 0;
#X connect 10 0 1 0;
#X connect 11 0 5 0;
#X coords 0 -1 1 1 100 100 2 100 100;
#X restore 649 161 pd counters;
#N canvas 516 53 919 743 bass 0;
#X obj 33 120 bass;
#X obj 115 125 tgl 15 0 empty empty Pulse: 17 7 0 10 #fcfcfc #000000
#000000 0 1;
#N canvas 296 84 1144 637 pulse 0;
#X obj 409 113 inlet;
#X obj 273 482 line~;
#X obj 279 253 t b b;
#X msg 331 303 0;
#X floatatom 54 143 5 0 0 0 - - - 0;
#X obj 54 121 r totalBeat;
#X floatatom 54 190 5 0 0 0 - - - 0;
#X obj 54 244 tgl 15 0 empty empty empty 17 7 0 10 #fcfcfc #000000
#000000 0 1;
#X obj 54 166 mod 2;
#X obj 92 243 tgl 15 0 empty empty empty 17 7 0 10 #fcfcfc #000000
#000000 0 1;
#X obj 54 217 == 1;
#X obj 92 218 == 0;
#X obj 49 290 spigot;
#X obj 173 291 spigot;
#X obj 150 213 bng 15 250 50 0 empty empty empty 17 7 0 10 #fcfcfc
#000000 #000000;
#X obj 178 322 bng 15 250 50 0 empty empty empty 17 7 0 10 #fcfcfc
#000000 #000000;
#X obj 41 323 bng 15 250 50 0 empty empty empty 17 7 0 10 #fcfcfc #000000
#000000;
#X obj 233 168 r metroBang;
#X obj 233 198 bng 15 250 50 0 empty empty empty 17 7 0 10 #fcfcfc
#000000 #000000;
#X msg 52 430 0.5 \, 0 200;
#X floatatom 409 137 5 0 0 0 - - - 0;
#X obj 842 517 inlet;
#X obj 400 223 mtof;
#X floatatom 400 247 5 0 0 0 - - - 0;
#X obj 401 552 *~, f 61;
#X obj 400 522 *~;
#X obj 400 270 pulse~ 25;
#X text 461 112 note input;
#X text 832 502 sound toggle;
#X obj 555 109 inlet;
#X text 597 110 duty cycle;
#X obj 401 603 outlet~;
#X obj 612 151 inlet;
#X text 658 154 pulse params;
#X floatatom 478 316 5 0 0 0 - - - 0;
#X floatatom 578 316 5 0 0 0 - - - 0;
#X floatatom 682 317 5 0 0 0 - - - 0;
#X floatatom 785 315 5 0 0 0 - - - 0;
#X obj 478 292 unpack f f f f f f, f 74;
#X text 514 315 1/3 amp;
#X text 619 317 1/3 fin;
#X text 723 316 1/3 dec;
#X floatatom 889 315 5 0 0 0 - - - 0;
#X floatatom 993 314 5 0 0 0 - - - 0;
#X text 828 315 2/4 amp;
#X text 931 312 2/4 fin;
#X text 1036 314 2/4 dec;
#X obj 487 473 pack f f f;
#X obj 797 431 pack f f f;
#X obj 191 345 list;
#X msg 190 382 \$1 \, \$2 \$3;
#X obj 487 497 s \$0-1/3param;
#X msg 194 424 1 \, 0 200;
#X obj 52 352 list;
#X msg 53 376 \$1 \, \$2 \$3;
#X obj 220 316 r \$0-2/4param;
#X obj 70 321 r \$0-1/3param;
#X obj 584 344 r metroBeat;
#X floatatom 650 400 5 0 0 0 - - - 0;
#X obj 649 375 *;
#X obj 895 351 r metroBeat;
#X floatatom 971 417 5 0 0 0 - - - 0;
#X obj 970 392 *;
#X obj 993 337 t b f;
#X obj 682 340 t b f;
#X obj 797 455 s \$0-2/4param;
#X listbox 233 345 20 0 0 0 - - - 0;
#X listbox 88 499 20 0 0 0 - - - 0;
#X obj 650 423 t b f;
#X obj 971 440 t b f;
#X connect 0 0 20 0;
#X connect 1 0 25 1;
#X connect 2 0 14 0;
#X connect 2 1 3 0;
#X connect 3 0 1 0;
#X connect 4 0 8 0;
#X connect 5 0 4 0;
#X connect 6 0 10 0;
#X connect 6 0 11 0;
#X connect 7 0 12 1;
#X connect 8 0 6 0;
#X connect 9 0 13 1;
#X connect 10 0 7 0;
#X connect 11 0 9 0;
#X connect 12 0 16 0;
#X connect 13 0 15 0;
#X connect 14 0 13 0;
#X connect 14 0 12 0;
#X connect 15 0 49 0;
#X connect 16 0 53 0;
#X connect 17 0 18 0;
#X connect 18 0 2 0;
#X connect 20 0 22 0;
#X connect 21 0 24 1;
#X connect 22 0 23 0;
#X connect 23 0 26 0;
#X connect 24 0 31 0;
#X connect 25 0 24 0;
#X connect 26 0 25 0;
#X connect 29 0 26 1;
#X connect 32 0 38 0;
#X connect 34 0 47 0;
#X connect 35 0 47 1;
#X connect 36 0 64 0;
#X connect 37 0 48 0;
#X connect 38 0 34 0;
#X connect 38 1 35 0;
#X connect 38 2 36 0;
#X connect 38 3 37 0;
#X connect 38 4 42 0;
#X connect 38 5 43 0;
#X connect 42 0 48 1;
#X connect 43 0 63 0;
#X connect 47 0 51 0;
#X connect 48 0 65 0;
#X connect 49 0 50 0;
#X connect 50 0 1 0;
#X connect 53 0 54 0;
#X connect 54 0 1 0;
#X connect 55 0 49 1;
#X connect 55 0 66 0;
#X connect 56 0 53 1;
#X connect 56 0 67 0;
#X connect 57 0 59 0;
#X connect 58 0 68 0;
#X connect 59 0 58 0;
#X connect 60 0 62 0;
#X connect 61 0 69 0;
#X connect 62 0 61 0;
#X connect 63 0 62 0;
#X connect 63 1 62 1;
#X connect 64 0 59 0;
#X connect 64 1 59 1;
#X connect 68 0 47 0;
#X connect 68 1 47 2;
#X connect 69 0 48 0;
#X connect 69 1 48 2;
#X restore 33 503 pd pulse;
#N canvas 137 209 1240 692 sample 0;
#X obj 102 22 inlet;
#X obj 108 66 spigot;
#X obj 317 26 inlet;
#X obj 75 562 outlet~;
#X obj 205 30 inlet;
#X floatatom 478 176 5 0 0 0 - - - 0;
#X floatatom 578 176 5 0 0 0 - - - 0;
#X floatatom 682 177 5 0 0 0 - - - 0;
#X floatatom 785 175 5 0 0 0 - - - 0;
#X obj 478 152 unpack f f f f f f, f 74;
#X text 514 175 1/3 amp;
#X text 619 177 1/3 fin;
#X text 723 176 1/3 dec;
#X floatatom 889 175 5 0 0 0 - - - 0;
#X floatatom 993 174 5 0 0 0 - - - 0;
#X text 828 175 2/4 amp;
#X text 931 172 2/4 fin;
#X text 1036 174 2/4 dec;
#X obj 487 303 pack f f f;
#X obj 797 291 pack f f f;
#X obj 487 327 s \$0-1/3param;
#X obj 584 214 r metroBeat;
#X floatatom 660 280 5 0 0 0 - - - 0;
#X obj 659 255 *;
#X obj 584 238 t b f;
#X obj 895 211 r metroBeat;
#X floatatom 971 277 5 0 0 0 - - - 0;
#X obj 970 252 *;
#X obj 895 235 t b f;
#X obj 993 197 t b f;
#X obj 682 200 t b f;
#X obj 797 315 s \$0-2/4param;
#X floatatom 171 122 5 0 0 0 - - - 0;
#X obj 171 100 r totalBeat;
#X floatatom 171 169 5 0 0 0 - - - 0;
#X obj 171 145 mod 2;
#X obj 209 222 tgl 15 0 empty empty empty 17 7 0 10 #fcfcfc #000000
#000000 0 1;
#X obj 171 196 == 1;
#X obj 209 197 == 0;
#X obj 166 269 spigot;
#X obj 290 270 spigot;
#X obj 267 192 bng 15 250 50 0 empty empty empty 17 7 0 10 #fcfcfc
#000000 #000000;
#X obj 295 301 bng 15 250 50 0 empty empty empty 17 7 0 10 #fcfcfc
#000000 #000000;
#X obj 275 147 r metroBang;
#X obj 308 324 list;
#X obj 169 331 list;
#X obj 337 295 r \$0-2/4param;
#X obj 187 300 r \$0-1/3param;
#X obj 164 306 bng 15 250 50 0 empty empty empty 17 7 0 10 #fcfcfc
#000000 #000000;
#X obj 148 230 tgl 15 0 empty empty empty 17 7 0 10 #fcfcfc #000000
#000000 0 1;
#X floatatom 82 103 5 0 0 0 - - - 0;
#X obj 169 355 unpack f f f;
#X obj 308 348 unpack f f f;
#X obj 81 450 sample-player b;
#X obj 75 408 pack f f f f f, f 57;
#X text 491 394 time to next note;
#X obj 471 369 r metroBeat;
#X connect 0 0 1 0;
#X connect 1 0 50 0;
#X connect 2 0 1 1;
#X connect 4 0 9 0;
#X connect 5 0 18 0;
#X connect 6 0 18 1;
#X connect 7 0 30 0;
#X connect 8 0 19 0;
#X connect 9 0 5 0;
#X connect 9 1 6 0;
#X connect 9 2 7 0;
#X connect 9 3 8 0;
#X connect 9 4 13 0;
#X connect 9 5 14 0;
#X connect 13 0 19 1;
#X connect 14 0 29 0;
#X connect 18 0 20 0;
#X connect 19 0 31 0;
#X connect 21 0 24 0;
#X connect 22 0 18 2;
#X connect 23 0 22 0;
#X connect 24 0 18 0;
#X connect 24 1 23 0;
#X connect 25 0 28 0;
#X connect 26 0 19 2;
#X connect 27 0 26 0;
#X connect 28 0 19 0;
#X connect 28 1 27 0;
#X connect 29 0 27 0;
#X connect 29 1 27 1;
#X connect 30 0 23 0;
#X connect 30 1 23 1;
#X connect 32 0 35 0;
#X connect 33 0 32 0;
#X connect 34 0 37 0;
#X connect 34 0 38 0;
#X connect 35 0 34 0;
#X connect 36 0 40 1;
#X connect 37 0 49 0;
#X connect 38 0 36 0;
#X connect 39 0 48 0;
#X connect 40 0 42 0;
#X connect 41 0 40 0;
#X connect 41 0 39 0;
#X connect 42 0 44 0;
#X connect 43 0 41 0;
#X connect 44 0 52 0;
#X connect 45 0 51 0;
#X connect 46 0 44 1;
#X connect 47 0 45 1;
#X connect 48 0 45 0;
#X connect 49 0 39 1;
#X connect 50 0 54 0;
#X connect 51 0 54 1;
#X connect 51 1 54 2;
#X connect 51 2 54 3;
#X connect 52 0 54 1;
#X connect 52 1 54 2;
#X connect 52 2 54 3;
#X connect 53 0 3 0;
#X connect 54 0 53 0;
#X connect 56 0 54 4;
#X restore 186 500 pd sample;
#X obj 115 165 tgl 15 0 empty empty Sample: 17 7 0 10 #fcfcfc #000000
#000000 0 1;
#X obj 186 125 hradio 15 1 0 4 empty empty Duty\\\ Cycle: 0 -8 0 10
#fcfcfc #000000 #000000 0;
#X obj 378 127 sel 0 1 2 3, f 28;
#X msg 378 151 12.5;
#X msg 426 151 25;
#X msg 474 151 50;
#X msg 522 151 75;
#X symbolatom 253 123 6 0 0 0 - - - 0;
#X obj 376 258 pack f s;
#X msg 376 282 set \$1\$2;
#X msg 432 230 symbol %;
#X obj 371 195 t f b;
#X obj 279 555 *~;
#X obj 271 171 vsl 15 128 0 100 0 0 empty empty Vol: 0 -9 0 10 #fcfcfc
#000000 #000000 0 1;
#X floatatom 294 438 5 0 0 0 - - - 0;
#X obj 294 492 pack f 30;
#X obj 294 516 line~;
#X obj 294 461 / 100;
#X text 117 193 On-Beat:;
#X text 189 193 Off-Beat:;
#X floatatom 216 222 5 0 0 0 - - - 0;
#X floatatom 215 253 5 0 0 0 - - - 0;
#X floatatom 215 285 5 0 0 0 - - - 0;
#X floatatom 118 223 5 0 0 1 Level: - - 0;
#X floatatom 118 253 5 0 0 1 Sustain: - - 0;
#X floatatom 117 284 5 0 0 1 Decay: - - 0;
#X obj 372 470 pack f f f f f f, f 43;
#X obj 396 435 t b f;
#X obj 455 435 t b f;
#X obj 519 435 t b f;
#X obj 586 435 t b f;
#X obj 641 435 t b f;
#X obj 49 435 r bass-dutycycle;
#X obj 97 460 r bass-params;
#X obj 372 494 s bass-params;
#X obj 474 204 s bass-dutycycle;
#X obj 110 21 r bassPreset;
#X obj 110 45 unpack f f f f f f f f f f;
#X obj 279 579 throw~ out;
#X connect 0 0 2 0;
#X connect 0 0 3 0;
#X connect 1 0 2 3;
#X connect 2 0 16 0;
#X connect 3 0 16 0;
#X connect 4 0 3 2;
#X connect 5 0 6 0;
#X connect 6 0 7 0;
#X connect 6 1 8 0;
#X connect 6 2 9 0;
#X connect 6 3 10 0;
#X connect 7 0 15 0;
#X connect 7 0 39 0;
#X connect 8 0 15 0;
#X connect 8 0 39 0;
#X connect 9 0 15 0;
#X connect 9 0 39 0;
#X connect 10 0 15 0;
#X connect 10 0 39 0;
#X connect 12 0 13 0;
#X connect 13 0 11 0;
#X connect 14 0 12 1;
#X connect 15 0 12 0;
#X connect 15 1 14 0;
#X connect 16 0 42 0;
#X connect 17 0 18 0;
#X connect 18 0 21 0;
#X connect 19 0 20 0;
#X connect 20 0 16 1;
#X connect 21 0 19 0;
#X connect 24 0 33 0;
#X connect 25 0 34 0;
#X connect 26 0 35 0;
#X connect 27 0 30 0;
#X connect 28 0 31 0;
#X connect 29 0 32 0;
#X connect 30 0 38 0;
#X connect 31 0 30 0;
#X connect 31 1 30 1;
#X connect 32 0 30 0;
#X connect 32 1 30 2;
#X connect 33 0 30 0;
#X connect 33 1 30 3;
#X connect 34 0 30 0;
#X connect 34 1 30 4;
#X connect 35 0 30 0;
#X connect 35 1 30 5;
#X connect 36 0 2 1;
#X connect 37 0 2 2;
#X connect 37 0 3 1;
#X connect 40 0 41 0;
#X connect 41 0 1 0;
#X connect 41 1 4 0;
#X connect 41 2 27 0;
#X connect 41 3 28 0;
#X connect 41 4 29 0;
#X connect 41 5 24 0;
#X connect 41 6 25 0;
#X connect 41 7 26 0;
#X connect 41 8 5 0;
#X connect 41 9 17 0;
#X coords 0 -1 1 1 200 220 2 100 100;
#X restore 666 372 pd bass;
#N canvas 581 201 450 475 drums 0;
#X obj 154 339 drum;
#X obj 106 118 tgl 15 0 empty empty Noise: 17 7 0 10 #fcfcfc #000000
#000000 0 1;
#X obj 154 363 *~;
#X obj 120 156 vsl 15 128 0 100 0 0 empty empty Vol: 0 -9 0 10 #fcfcfc
#000000 #000000 0 1;
#X floatatom 233 236 5 0 0 0 - - - 0;
#X obj 233 290 pack f 30;
#X obj 233 314 line~;
#X obj 233 259 / 100;
#X obj 279 84 loadbang;
#X msg 277 110 1;
#X obj 154 387 throw~ out;
#X msg 313 111 40;
#X connect 0 0 2 0;
#X connect 1 0 0 0;
#X connect 2 0 10 0;
#X connect 3 0 4 0;
#X connect 4 0 7 0;
#X connect 5 0 6 0;
#X connect 6 0 2 1;
#X connect 7 0 5 0;
#X connect 8 0 9 0;
#X connect 8 0 11 0;
#X connect 9 0 1 0;
#X connect 11 0 3 0;
#X coords 0 -1 1 1 60 200 2 100 100;
#X restore 360 387 pd drums;
#N canvas 4 50 833 714 comping 0;
#X obj 27 376 comping;
#N canvas 59 112 1043 855 sample 0;
#X obj 810 427 inlet;
#X obj 162 33 inlet;
#X obj 171 482 unpack f f f f, f 70;
#X obj 155 136 list;
#X obj 302 5 inlet;
#X obj 171 455 spigot, f 82;
#X floatatom 171 506 5 0 0 0 - - - 0;
#X obj 171 544 list append;
#X floatatom 331 506 5 0 0 0 - - - 0;
#X obj 331 533 list append;
#X floatatom 493 506 5 0 0 0 - - - 0;
#X obj 493 533 list append;
#X floatatom 658 510 5 0 0 0 - - - 0;
#X obj 658 537 list append;
#X obj 340 803 outlet~;
#X obj 337 747 +~;
#X obj 337 771 /~ 4;
#X obj 173 578 sample-player p;
#X obj 332 573 sample-player p;
#X obj 493 571 sample-player p;
#X obj 661 573 sample-player p;
#X obj 329 406 list append;
#X text 159 12 new chord list;
#X text 847 430 toggle;
#X text 350 4 params;
#X obj 608 19 r metroBeat;
#X text 377 347 time to next chord;
#X obj 260 97 unpack f f f;
#X obj 254 387 pack f f f;
#X obj 394 172 *;
#X floatatom 302 329 5 0 0 0 - - - 0;
#X obj 504 292 * 4;
#X floatatom 505 327 5 0 0 0 - - - 0;
#X obj 304 129 r metroBeat;
#X floatatom 507 163 5 0 0 0 - - - 0;
#X obj 507 139 r newChordBeats;
#X obj 281 68 list;
#X obj 401 146 t b f;
#X obj 472 66 bng 15 250 50 0 empty empty empty 17 7 0 10 #fcfcfc #000000
#000000;
#X listbox 175 429 20 0 0 0 - - - 0;
#X obj 302 29 t b a;
#X obj 218 377 bng 15 250 50 0 empty empty empty 17 7 0 10 #fcfcfc
#000000 #000000;
#X obj 162 57 t b a;
#X obj 301 351 t b f;
#X text 568 348 time to next beat;
#X floatatom 487 404 5 0 0 0 - - - 0;
#X obj 773 202 r compingStyle;
#X obj 514 349 spigot;
#X obj 693 348 spigot;
#X obj 552 328 tgl 15 0 empty empty empty 17 7 0 10 #fcfcfc #000000
#000000 0 1;
#X obj 722 330 tgl 15 0 empty empty empty 17 7 0 10 #fcfcfc #000000
#000000 0 1;
#X obj 691 77 t b f;
#X obj 900 345 spigot;
#X obj 930 324 tgl 15 0 empty empty empty 17 7 0 10 #fcfcfc #000000
#000000 0 1;
#X text 762 344 time to next eight;
#X obj 871 294 * 0.5;
#X obj 550 296 == 0;
#X obj 723 302 == 1;
#X obj 929 297 == 2;
#X obj 304 297 spigot;
#X obj 373 296 spigot;
#X obj 371 209 * 0.5;
#X obj 747 28 bng 15 250 50 0 empty empty empty 17 7 0 10 #fcfcfc #000000
#000000;
#X floatatom 689 54 5 0 0 0 - - - 0;
#X obj 773 226 t b f;
#X floatatom 310 232 5 0 0 0 - - - 0;
#X floatatom 371 233 5 0 0 0 - - - 0;
#X text 529 406 length til next note;
#X floatatom 304 153 5 0 0 0 - - - 0;
#X obj 437 210 r compingStyle;
#X obj 455 244 == 2;
#X obj 414 243 != 2;
#X obj 329 275 tgl 15 0 empty empty empty 17 7 0 10 #fcfcfc #000000
#000000 0 1;
#X obj 398 277 tgl 15 0 empty empty empty 17 7 0 10 #fcfcfc #000000
#000000 0 1;
#X floatatom 678 328 5 0 0 0 - - - 0;
#X floatatom 888 322 5 0 0 0 - - - 0;
#X text 464 41 reload params;
#X text 764 48 check lengths again when changing style;
#X obj 27 536 r chordStates;
#X obj 27 560 unpack f f f f;
#X obj 173 642 *~;
#X floatatom 195 614 5 0 0 0 - - - 0;
#X obj 333 652 *~;
#X floatatom 355 614 5 0 0 0 - - - 0;
#X obj 496 639 *~;
#X floatatom 518 611 5 0 0 0 - - - 0;
#X obj 654 634 *~;
#X floatatom 676 606 5 0 0 0 - - - 0;
#X connect 0 0 5 1;
#X connect 1 0 42 0;
#X connect 2 0 6 0;
#X connect 2 1 8 0;
#X connect 2 2 10 0;
#X connect 2 3 12 0;
#X connect 3 0 5 0;
#X connect 4 0 40 0;
#X connect 5 0 2 0;
#X connect 6 0 7 0;
#X connect 7 0 17 0;
#X connect 8 0 9 0;
#X connect 9 0 18 0;
#X connect 10 0 11 0;
#X connect 11 0 19 0;
#X connect 12 0 13 0;
#X connect 13 0 20 0;
#X connect 15 0 16 0;
#X connect 16 0 14 0;
#X connect 17 0 80 0;
#X connect 18 0 82 0;
#X connect 19 0 84 0;
#X connect 20 0 86 0;
#X connect 21 0 7 1;
#X connect 21 0 9 1;
#X connect 21 0 11 1;
#X connect 21 0 13 1;
#X connect 21 0 39 0;
#X connect 25 0 63 0;
#X connect 27 0 28 0;
#X connect 27 1 28 1;
#X connect 27 2 37 0;
#X connect 28 0 21 0;
#X connect 28 0 41 0;
#X connect 29 0 61 0;
#X connect 29 0 65 0;
#X connect 30 0 43 0;
#X connect 31 0 32 0;
#X connect 32 0 47 0;
#X connect 33 0 68 0;
#X connect 34 0 31 0;
#X connect 35 0 34 0;
#X connect 36 0 27 0;
#X connect 37 0 29 0;
#X connect 37 1 29 1;
#X connect 38 0 36 0;
#X connect 40 0 36 0;
#X connect 40 1 36 1;
#X connect 42 0 3 0;
#X connect 42 1 3 1;
#X connect 43 0 28 0;
#X connect 43 1 28 2;
#X connect 45 0 21 1;
#X connect 45 0 38 0;
#X connect 46 0 64 0;
#X connect 47 0 45 0;
#X connect 48 0 45 0;
#X connect 49 0 47 1;
#X connect 50 0 48 1;
#X connect 51 0 38 0;
#X connect 51 0 31 0;
#X connect 51 1 55 0;
#X connect 51 1 31 1;
#X connect 51 1 74 0;
#X connect 52 0 45 0;
#X connect 53 0 52 1;
#X connect 55 0 75 0;
#X connect 56 0 49 0;
#X connect 57 0 50 0;
#X connect 58 0 53 0;
#X connect 59 0 30 0;
#X connect 60 0 30 0;
#X connect 61 0 66 0;
#X connect 62 0 63 0;
#X connect 63 0 51 0;
#X connect 64 0 62 0;
#X connect 64 1 58 0;
#X connect 64 1 57 0;
#X connect 64 1 56 0;
#X connect 65 0 59 0;
#X connect 66 0 60 0;
#X connect 68 0 29 0;
#X connect 69 0 70 0;
#X connect 69 0 71 0;
#X connect 70 0 73 0;
#X connect 71 0 72 0;
#X connect 72 0 59 1;
#X connect 73 0 60 1;
#X connect 74 0 48 0;
#X connect 75 0 52 0;
#X connect 78 0 79 0;
#X connect 79 0 81 0;
#X connect 79 1 83 0;
#X connect 79 2 85 0;
#X connect 79 3 87 0;
#X connect 80 0 15 0;
#X connect 81 0 80 1;
#X connect 82 0 15 0;
#X connect 83 0 82 1;
#X connect 84 0 15 1;
#X connect 85 0 84 1;
#X connect 86 0 15 1;
#X connect 87 0 86 1;
#X restore 27 459 pd sample;
#N canvas 192 81 1190 755 pulse 0;
#X obj 240 184 mtof;
#X floatatom 240 208 5 0 0 0 - - - 0;
#X obj 368 181 mtof;
#X floatatom 368 205 5 0 0 0 - - - 0;
#X obj 508 177 mtof;
#X floatatom 508 201 5 0 0 0 - - - 0;
#X obj 243 657 *~, f 50;
#X obj 135 186 mtof;
#X floatatom 135 210 5 0 0 0 - - - 0;
#X obj 243 681 /~ 4;
#X obj 244 341 +~;
#X obj 715 635 inlet;
#X obj 243 621 *~;
#X obj 474 605 line~;
#X obj 207 67 inlet;
#X obj 207 91 unpack f f f f;
#X obj 135 233 pulse~ 12.5;
#X obj 240 231 pulse~ 12.5;
#X obj 368 228 pulse~ 12.5;
#X obj 508 224 pulse~ 12.5;
#X obj 424 61 inlet;
#X text 477 58 duty cycle;
#X text 120 65 list inlet;
#X obj 243 705 outlet~;
#X obj 600 264 inlet;
#X text 652 247 params;
#X text 768 636 toggle;
#X obj 473 539 list;
#X msg 474 572 \$1 \, \$2 \$3;
#X obj 600 288 unpack f f f, f 30;
#X obj 627 570 pack f f f;
#X obj 725 72 r metroBeat;
#X floatatom 788 153 5 0 0 0 - - - 0;
#X obj 787 128 *;
#X obj 820 93 t b f;
#X obj 788 176 t b f;
#X floatatom 819 65 5 0 0 0 - - - 0;
#X floatatom 675 311 5 0 0 0 - - - 0;
#X floatatom 591 313 5 0 0 0 - - - 0;
#X obj 19 269 r chordStates;
#X obj 19 293 unpack f f f f;
#X obj 135 283 *~;
#X floatatom 153 262 5 0 0 0 - - - 0;
#X obj 237 286 *~;
#X floatatom 255 265 5 0 0 0 - - - 0;
#X obj 367 283 *~;
#X floatatom 385 262 5 0 0 0 - - - 0;
#X obj 497 279 *~;
#X floatatom 515 258 5 0 0 0 - - - 0;
#X obj 820 351 *;
#X floatatom 728 508 5 0 0 0 - - - 0;
#X obj 718 330 r metroBeat;
#X obj 827 325 t b f;
#X obj 727 530 t b f;
#X obj 730 476 spigot;
#X obj 799 475 spigot;
#X obj 797 388 * 0.5;
#X floatatom 736 411 5 0 0 0 - - - 0;
#X floatatom 797 412 5 0 0 0 - - - 0;
#X floatatom 718 354 5 0 0 0 - - - 0;
#X obj 863 389 r compingStyle;
#X obj 881 423 == 2;
#X obj 840 422 != 2;
#X obj 755 454 tgl 15 0 empty empty empty 17 7 0 10 #fcfcfc #000000
#000000 0 1;
#X obj 824 456 tgl 15 0 empty empty empty 17 7 0 10 #fcfcfc #000000
#000000 0 1;
#X obj 455 460 r chordBeat;
#X connect 0 0 1 0;
#X connect 1 0 17 0;
#X connect 2 0 3 0;
#X connect 3 0 18 0;
#X connect 4 0 5 0;
#X connect 5 0 19 0;
#X connect 6 0 9 0;
#X connect 7 0 8 0;
#X connect 8 0 16 0;
#X connect 9 0 23 0;
#X connect 10 0 12 0;
#X connect 11 0 6 1;
#X connect 12 0 6 0;
#X connect 13 0 12 1;
#X connect 14 0 15 0;
#X connect 15 0 7 0;
#X connect 15 1 0 0;
#X connect 15 2 2 0;
#X connect 15 3 4 0;
#X connect 16 0 41 0;
#X connect 17 0 43 0;
#X connect 18 0 45 0;
#X connect 19 0 47 0;
#X connect 20 0 18 1;
#X connect 20 0 19 1;
#X connect 20 0 17 1;
#X connect 20 0 16 1;
#X connect 24 0 29 0;
#X connect 27 0 28 0;
#X connect 28 0 13 0;
#X connect 29 0 38 0;
#X connect 29 1 37 0;
#X connect 29 2 52 0;
#X connect 30 0 27 1;
#X connect 31 0 33 0;
#X connect 32 0 35 0;
#X connect 33 0 32 0;
#X connect 34 0 33 0;
#X connect 34 1 33 1;
#X connect 36 0 34 0;
#X connect 37 0 30 1;
#X connect 38 0 30 0;
#X connect 39 0 40 0;
#X connect 40 0 42 0;
#X connect 40 1 44 0;
#X connect 40 2 46 0;
#X connect 40 3 48 0;
#X connect 41 0 10 0;
#X connect 42 0 41 1;
#X connect 43 0 10 0;
#X connect 44 0 43 1;
#X connect 45 0 10 1;
#X connect 46 0 45 1;
#X connect 47 0 10 1;
#X connect 48 0 47 1;
#X connect 49 0 56 0;
#X connect 49 0 57 0;
#X connect 50 0 53 0;
#X connect 51 0 59 0;
#X connect 52 0 49 0;
#X connect 52 1 49 1;
#X connect 53 0 30 0;
#X connect 53 1 30 2;
#X connect 54 0 50 0;
#X connect 55 0 50 0;
#X connect 56 0 58 0;
#X connect 57 0 54 0;
#X connect 58 0 55 0;
#X connect 59 0 49 0;
#X connect 60 0 61 0;
#X connect 60 0 62 0;
#X connect 61 0 64 0;
#X connect 62 0 63 0;
#X connect 63 0 54 1;
#X connect 64 0 55 1;
#X connect 65 0 27 0;
#X restore 122 460 pd pulse;
#X obj 113 161 tgl 15 0 empty empty Sample: 17 7 0 10 #fcfcfc #000000
#000000 0 1;
#X obj 112 125 tgl 15 0 empty empty Pulse: 17 7 0 10 #fcfcfc #000000
#000000 0 1;
#X obj 328 57 sel 0 1 2 3, f 28;
#X msg 328 81 12.5;
#X msg 376 81 25;
#X msg 424 81 50;
#X msg 472 81 75;
#X obj 326 188 pack f s;
#X msg 326 212 set \$1\$2;
#X msg 382 160 symbol %;
#X obj 321 125 t f b;
#X obj 176 125 hradio 15 1 0 4 empty empty Duty\\\ Cycle: 0 -8 0 10
#fcfcfc #000000 #000000 0;
#X symbolatom 243 123 6 0 0 0 - - - 0;
#X obj 207 527 *~;
#X floatatom 252 370 5 0 0 0 - - - 0;
#X obj 252 424 pack f 30;
#X obj 252 448 line~;
#X obj 252 393 / 100;
#X obj 252 168 vsl 15 128 0 100 0 0 empty empty Vol: 0 -9 0 10 #fcfcfc
#000000 #000000 0 1;
#X obj 357 304 pack f f f, f 19;
#X obj 390 279 t b f;
#X obj 455 279 t b f;
#X floatatom 138 199 5 0 0 1 Level: - - 0;
#X floatatom 138 229 5 0 0 1 Sustain: - - 0;
#X floatatom 137 260 5 0 0 1 Decay: - - 0;
#X obj 424 134 s comp-dutycycle;
#X obj 122 385 r comp-dutycycle;
#X obj 65 422 r comp-params;
#X obj 358 334 s comp-params;
#X obj 120 309 hradio 15 1 0 3 empty empty Style: 0 -8 0 10 #fcfcfc
#000000 #000000 0;
#X obj 106 353 s compingStyle;
#N canvas 144 71 726 485 arpeggio 0;
#X obj 481 163 r compingStyle;
#X obj 438 197 == 2;
#X text 435 134 if style 2 \, arpeggiate;
#X obj 42 39 r newChordBang;
#X obj 42 66 bng 15 250 50 0 empty empty empty 17 7 0 10 #fcfcfc #000000
#000000;
#X obj 440 240 tgl 15 0 empty empty empty 17 7 0 10 #fcfcfc #000000
#000000 0 1;
#X msg 41 92 0;
#X obj 55 132 f;
#X obj 94 131 + 1;
#X floatatom 55 156 5 0 0 0 - - - 0;
#X obj 87 105 bng 15 250 50 0 empty empty empty 17 7 0 10 #fcfcfc #000000
#000000;
#X obj 55 179 mod 4;
#X floatatom 55 203 5 0 0 0 - - - 0;
#X obj 55 226 sel 0 1 2 3, f 46;
#X msg 56 266 1 0 0 0;
#X msg 132 266 0 1 0 0;
#X msg 207 267 0 0 1 0;
#X msg 290 266 0 0 0 1;
#X obj 492 196 != 2;
#X obj 496 239 tgl 15 0 empty empty empty 17 7 0 10 #fcfcfc #000000
#000000 0 1;
#X obj 275 422 s chordStates;
#X obj 472 314 bng 15 250 50 0 empty empty empty 17 7 0 10 #fcfcfc
#000000 #000000;
#X msg 381 353 1 1 1 1, f 8;
#X obj 188 324 list;
#X obj 188 348 spigot;
#X listbox 274 394 20 0 0 0 - - - 0;
#X obj 105 78 r chordArpeggioBeat;
#X connect 0 0 1 0;
#X connect 0 0 18 0;
#X connect 1 0 5 0;
#X connect 3 0 4 0;
#X connect 4 0 6 0;
#X connect 5 0 24 1;
#X connect 6 0 7 0;
#X connect 7 0 8 0;
#X connect 7 0 9 0;
#X connect 8 0 7 1;
#X connect 9 0 11 0;
#X connect 10 0 7 0;
#X connect 11 0 12 0;
#X connect 12 0 13 0;
#X connect 13 0 14 0;
#X connect 13 1 15 0;
#X connect 13 2 16 0;
#X connect 13 3 17 0;
#X connect 14 0 23 0;
#X connect 15 0 23 0;
#X connect 16 0 23 0;
#X connect 17 0 23 0;
#X connect 18 0 19 0;
#X connect 19 0 21 0;
#X connect 21 0 22 0;
#X connect 22 0 25 0;
#X connect 23 0 24 0;
#X connect 24 0 25 0;
#X connect 25 0 20 0;
#X connect 26 0 10 0;
#X restore 51 556 pd arpeggio;
#X obj 21 29 r compPreset;
#X obj 21 53 unpack f f f f f f f f;
#X obj 207 551 throw~ out;
#X obj 547 221 r compingStyle;
#X obj 547 245 sel 0 1 2;
#X msg 630 351 set Arpeggiating;
#X msg 544 285 set Every Chord;
#X listbox 176 307 16 0 0 0 - - - 0;
#X msg 581 319 set Every Beat;
#X connect 0 0 1 0;
#X connect 0 0 2 0;
#X connect 1 0 16 0;
#X connect 2 0 16 0;
#X connect 3 0 1 2;
#X connect 4 0 2 3;
#X connect 5 0 6 0;
#X connect 5 1 7 0;
#X connect 5 2 8 0;
#X connect 5 3 9 0;
#X connect 6 0 13 0;
#X connect 6 0 28 0;
#X connect 7 0 13 0;
#X connect 7 0 28 0;
#X connect 8 0 13 0;
#X connect 8 0 28 0;
#X connect 9 0 13 0;
#X connect 9 0 28 0;
#X connect 10 0 11 0;
#X connect 11 0 15 0;
#X connect 12 0 10 1;
#X connect 13 0 10 0;
#X connect 13 1 12 0;
#X connect 14 0 5 0;
#X connect 16 0 37 0;
#X connect 17 0 20 0;
#X connect 18 0 19 0;
#X connect 19 0 16 1;
#X connect 20 0 18 0;
#X connect 21 0 17 0;
#X connect 22 0 31 0;
#X connect 23 0 22 0;
#X connect 23 1 22 1;
#X connect 24 0 22 0;
#X connect 24 1 22 2;
#X connect 25 0 22 0;
#X connect 26 0 23 0;
#X connect 27 0 24 0;
#X connect 29 0 2 1;
#X connect 30 0 2 2;
#X connect 30 0 1 1;
#X connect 32 0 33 0;
#X connect 35 0 36 0;
#X connect 36 0 4 0;
#X connect 36 1 3 0;
#X connect 36 2 25 0;
#X connect 36 3 26 0;
#X connect 36 4 27 0;
#X connect 36 5 14 0;
#X connect 36 6 21 0;
#X connect 36 7 32 0;
#X connect 38 0 39 0;
#X connect 39 0 41 0;
#X connect 39 1 43 0;
#X connect 39 2 40 0;
#X connect 40 0 42 0;
#X connect 41 0 42 0;
#X connect 43 0 42 0;
#X coords 0 -1 1 1 200 240 2 100 100;
#X restore 436 347 pd comping;
#N canvas 287 243 840 518 presets 0;
#X obj 512 300 s compPreset;
#X obj 14 255 s bassPreset;
#X obj 328 57 loadbang;
#X obj 316 132 bng 15 250 50 0 empty empty empty 17 7 0 10 #fcfcfc
#000000 #000000;
#X obj 376 132 bng 15 250 50 0 empty empty empty 17 7 0 10 #fcfcfc
#000000 #000000;
#X obj 316 162 bng 15 250 50 0 empty empty empty 17 7 0 10 #fcfcfc
#000000 #000000;
#X obj 376 162 bng 15 250 50 0 empty empty empty 17 7 0 10 #fcfcfc
#000000 #000000;
#X obj 316 192 bng 15 250 50 0 empty empty empty 17 7 0 10 #fcfcfc
#000000 #000000;
#X obj 376 192 bng 15 250 50 0 empty empty empty 17 7 0 10 #fcfcfc
#000000 #000000;
#X msg 54 198 0 1 0.5 0.5 0.75 1 0.25 0.75 1 50;
#X msg 51 127 1 0 0.5 0.2 0.5 1 0 0.75 1 40;
#X msg 63 161 1 0 0.6 0.2 0.4 0.8 0.1 0.8 1 30;
#X msg 417 156 1 0 1 0.5 0.8 3 65 2;
#X msg 416 199 0 1 1 0.5 0.75 0 60 1;
#X msg 415 127 1 0 1 0.4 0.5 0 50 0;
#X text 302 105 Bass:;
#X text 345 105 Comping:;
#X text 339 132 1:;
#X text 340 162 2:;
#X text 341 190 3:;
#X connect 2 0 3 0;
#X connect 2 0 4 0;
#X connect 3 0 10 0;
#X connect 4 0 14 0;
#X connect 5 0 11 0;
#X connect 6 0 12 0;
#X connect 7 0 9 0;
#X connect 8 0 13 0;
#X connect 9 0 1 0;
#X connect 10 0 1 0;
#X connect 11 0 1 0;
#X connect 12 0 0 0;
#X connect 13 0 0 0;
#X connect 14 0 0 0;
#X coords 0 -1 1 1 110 120 2 300 100;
#X restore 764 161 pd presets;
#N canvas 520 130 920 748 melody 0;
#X obj 127 317 notein;
#X obj 129 342 pack;
#X obj 129 363 poly 1 1;
#X obj 129 384 pack f f f;
#X obj 129 405 route 1;
#X obj 129 499 pulse~ 25;
#X obj 129 469 mtof;
#X obj 129 429 unpack f f;
#X floatatom 206 459 5 0 0 0 - - - 0;
#X obj 206 482 / 127;
#X msg 206 506 \$1 30;
#X obj 206 530 line~;
#X obj 125 579 *~;
#X obj 125 613 *~;
#X obj 163 162 vsl 15 128 0 100 0 0 empty empty Vol: 0 -9 0 10 #fcfcfc
#000000 #000000 0 1;
#X floatatom 301 504 5 0 0 0 - - - 0;
#X obj 301 558 pack f 30;
#X obj 193 597 line~;
#X obj 301 527 / 100;
#X obj 125 637 throw~ out;
#X obj 379 137 sel 0 1 2 3, f 28;
#X msg 379 161 12.5;
#X msg 427 161 25;
#X msg 475 161 50;
#X msg 523 161 75;
#X obj 377 268 pack f s;
#X msg 433 240 symbol %;
#X obj 372 205 t f b;
#X obj 112 125 hradio 15 1 0 4 empty empty Duty\\\ Cycle: 0 -8 0 10
#fcfcfc #000000 #000000 0;
#X symbolatom 179 122 6 0 0 0 - - - 0;
#X msg 377 292 set \$1\$2;
#X obj 155 13 loadbang;
#X msg 139 59 30;
#X obj 475 214 s melody-dutycycle;
#X obj 321 415 r melody-dutycycle;
#X msg 89 57 1;
#X connect 0 0 1 0;
#X connect 0 1 1 1;
#X connect 1 0 2 0;
#X connect 2 0 3 0;
#X connect 2 1 3 1;
#X connect 2 2 3 2;
#X connect 3 0 4 0;
#X connect 4 0 7 0;
#X connect 5 0 12 0;
#X connect 6 0 5 0;
#X connect 7 0 6 0;
#X connect 7 1 8 0;
#X connect 8 0 9 0;
#X connect 9 0 10 0;
#X connect 10 0 11 0;
#X connect 11 0 12 1;
#X connect 12 0 13 0;
#X connect 13 0 19 0;
#X connect 14 0 15 0;
#X connect 15 0 18 0;
#X connect 16 0 17 0;
#X connect 17 0 13 1;
#X connect 18 0 16 0;
#X connect 20 0 21 0;
#X connect 20 1 22 0;
#X connect 20 2 23 0;
#X connect 20 3 24 0;
#X connect 21 0 27 0;
#X connect 21 0 33 0;
#X connect 22 0 27 0;
#X connect 22 0 33 0;
#X connect 23 0 27 0;
#X connect 23 0 33 0;
#X connect 24 0 27 0;
#X connect 24 0 33 0;
#X connect 25 0 30 0;
#X connect 26 0 25 1;
#X connect 27 0 25 0;
#X connect 27 1 26 0;
#X connect 28 0 20 0;
#X connect 30 0 29 0;
#X connect 31 0 35 0;
#X connect 31 0 32 0;
#X connect 32 0 14 0;
#X connect 34 0 5 1;
#X connect 35 0 28 0;
#X coords 0 -1 1 1 150 200 2 100 100;
#X restore 191 389 pd melody;
#N canvas 566 147 466 472 guts 0;
#N canvas 429 83 857 715 loading-samples 0;
#X obj 25 84 soundfiler;
#X floatatom 25 116 8 0 0 0 - - - 0;
#X text 92 116 number of samples in file;
#X floatatom 105 203 5 0 0 0 - - - 0;
#X text 147 204 duration in ms;
#X obj 27 13 loadbang;
#X obj 25 226 s p-length;
#X obj 105 226 s p-duration;
#X obj 390 92 soundfiler;
#X floatatom 390 124 8 0 0 0 - - - 0;
#X text 457 124 number of samples in file;
#X floatatom 470 211 5 0 0 0 - - - 0;
#X text 512 212 duration in ms;
#X obj 392 21 loadbang;
#X obj 390 234 s b-length;
#X obj 470 234 s b-duration;
#X obj 470 187 / 16;
#X obj 105 179 / 32;
#X msg 612 183 44;
#N canvas 167 320 450 278 (subpatch) 0;
#X array b-array 10889 float 2;
#X coords 0 1 10889 -1 200 140 1 0 0;
#X restore 389 293 graph;
#X obj 614 237 s b-ref-pitch;
#X text 616 212 this sample reference pitch is 44;
#N canvas 0 22 450 278 (subpatch) 0;
#X array p-array 29489 float 2;
#X coords 0 1 29489 -1 200 140 1 0 0;
#X restore 23 290 graph;
#X obj 261 232 s p-ref-pitch;
#X msg 254 178 67;
#X text 290 180 piano ref;
#X msg 25 42 read -resize ./samples/64piano-67.wav p-array;
#X msg 390 50 read -resize ./samples/64bass-44.wav b-array;
#X connect 0 0 1 0;
#X connect 1 0 6 0;
#X connect 1 0 17 0;
#X connect 1 0 24 0;
#X connect 3 0 7 0;
#X connect 5 0 26 0;
#X connect 8 0 9 0;
#X connect 9 0 14 0;
#X connect 9 0 16 0;
#X connect 9 0 18 0;
#X connect 11 0 15 0;
#X connect 13 0 27 0;
#X connect 16 0 11 0;
#X connect 17 0 3 0;
#X connect 18 0 20 0;
#X connect 24 0 23 0;
#X connect 26 0 0 0;
#X connect 27 0 8 0;
#X restore 35 109 pd loading-samples;
#X obj 33 78 pulse-waves;
#X restore 730 335 pd guts;
#N canvas 219 78 504 669 mainAudio 0;
#X obj 32 337 catch~ out;
#X obj 32 369 *~;
#X obj 32 393 *~;
#X obj 70 437 dac~;
#X obj 189 229 r mainToggle;
#X floatatom 189 253 5 0 0 0 - - - 0;
#X msg 189 276 \$1 30;
#X obj 189 300 line~;
#X msg 152 419 \$1 30;
#X obj 86 361 line~;
#X obj 106 53 loadbang;
#X msg 106 77 80;
#X obj 152 396 / 100;
#X obj 110 108 hsl 128 15 0 100 0 0 empty empty empty -2 -8 0 10 #fcfcfc
#000000 #000000 0 1;
#X obj 137 562 throw~ rec;
#X connect 0 0 1 0;
#X connect 1 0 2 0;
#X connect 2 0 3 0;
#X connect 2 0 3 1;
#X connect 2 0 14 0;
#X connect 4 0 5 0;
#X connect 5 0 6 0;
#X connect 6 0 7 0;
#X connect 7 0 2 1;
#X connect 8 0 9 0;
#X connect 9 0 1 1;
#X connect 10 0 11 0;
#X connect 11 0 13 0;
#X connect 12 0 8 0;
#X connect 13 0 12 0;
#X coords 0 -1 1 1 150 30 2 100 100;
#X restore 651 293 pd mainAudio;
#X text 175 134 Chart Reader:;
#X text 435 135 Position Display:;
#X text 650 136 Timing:;
#X text 764 134 Presets:;
#X text 656 274 Main Volume:;
#X text 660 343 Bass:;
#X text 440 320 Comping:;
#X text 357 364 Drums:;
#X text 199 366 Melody:;
#N canvas 847 153 572 479 rec 0;
#X msg 181 186 start;
#X msg 252 185 stop;
#X obj 105 108 bng 15 250 50 0 empty empty Start: 17 7 0 10 #fcfcfc
#000000 #000000;
#X obj 105 130 bng 15 250 50 0 empty empty Stop: 17 7 0 10 #fcfcfc
#000000 #000000;
#X obj 20 184 catch~ rec;
#X obj 71 378 writesf~ 2;
#X obj 312 191 loadbang;
#X msg 275 245 open rec.wav;
#X connect 0 0 5 0;
#X connect 1 0 5 0;
#X connect 2 0 0 0;
#X connect 3 0 1 0;
#X connect 4 0 5 0;
#X connect 4 0 5 1;
#X connect 6 0 7 0;
#X connect 7 0 5 0;
#X coords 0 -1 1 1 60 50 2 100 100;
#X restore 808 312 pd rec;
#X text 813 289 Record:;
